<?xml version="1.0" encoding="UTF-8"?>
<svg version="1.1" xmlns="http://www.w3.org/2000/svg" width="127" height="117">
<path d="M0 0 C41.91 0 83.82 0 127 0 C127 38.61 127 77.22 127 117 C85.09 117 43.18 117 0 117 C0 78.39 0 39.78 0 0 Z " fill="#FBFCFC" transform="translate(0,0)"/>
<path d="M0 0 C0 0.99 0 1.98 0 3 C2.31 4.32 4.62 5.64 7 7 C7 7.66 7 8.32 7 9 C6.34 9 5.68 9 5 9 C7.45697418 12.68546126 9.0606482 12.8706674 13.125 14.05859375 C15 15 15 15 17 19 C13.37 19.66 9.74 20.32 6 21 C10.28904278 23.30948458 14.47831648 24.84314434 19.14453125 26.15625 C19.75683594 26.4346875 20.36914062 26.713125 21 27 C21.495 28.485 21.495 28.485 22 30 C22.66 30 23.32 30 24 30 C24 30.66 24 31.32 24 32 C19.38 32.33 14.76 32.66 10 33 C10 33.99 10 34.98 10 36 C10.763125 36.0825 11.52625 36.165 12.3125 36.25 C15.58337865 36.91526345 18.59015878 37.7536833 21.75 38.8125 C22.69359375 39.12832031 23.6371875 39.44414063 24.609375 39.76953125 C27.33696628 41.17343852 27.97701724 42.16300712 29 45 C29.66 45 30.32 45 31 45 C31 45.66 31 46.32 31 47 C29.89140625 47.12117188 28.7828125 47.24234375 27.640625 47.3671875 C26.17703766 47.53606296 24.71349843 47.70535572 23.25 47.875 C22.52039063 47.95363281 21.79078125 48.03226563 21.0390625 48.11328125 C17.33222743 48.55136176 14.19547828 48.9986215 11 51 C11.62648438 51.13277344 12.25296875 51.26554687 12.8984375 51.40234375 C13.71570313 51.57894531 14.53296875 51.75554688 15.375 51.9375 C16.18710938 52.11152344 16.99921875 52.28554688 17.8359375 52.46484375 C20 53 20 53 22 54 C22 54.66 22 55.32 22 56 C22.8353125 56.03867188 22.8353125 56.03867188 23.6875 56.078125 C29.33446783 56.49783207 34.3643013 57.57052903 39 61 C39.33 61.99 39.66 62.98 40 64 C41.485 64.99 41.485 64.99 43 66 C41.18884044 67.81115956 38.38721773 67.38199448 35.9375 67.5625 C34.83277344 67.64628906 33.72804688 67.73007813 32.58984375 67.81640625 C31.73519531 67.87699219 30.88054687 67.93757813 30 68 C30 68.33 30 68.66 30 69 C27.03 69 24.06 69 21 69 C21 69.66 21 70.32 21 71 C20.16597656 71.01675781 19.33195312 71.03351563 18.47265625 71.05078125 C13.02328352 71.46900344 9.29300617 71.83558981 5.1328125 75.58203125 C2.93799342 78.31328374 0.90315522 81.05920718 -1 84 C0.1446875 82.83210938 0.1446875 82.83210938 1.3125 81.640625 C8.00990418 75.06003601 13.47393753 73.71135389 22.55078125 73.765625 C25.83315075 74.07972734 28.23356535 75.25277811 31 77 C31 77.66 31 78.32 31 79 C31.85271484 79.02126953 31.85271484 79.02126953 32.72265625 79.04296875 C38.95376342 79.42786185 42.2843513 80.88634901 47 85 C47 85.66 47 86.32 47 87 C48.9600281 88.63676257 48.9600281 88.63676257 51 90 C48.35541621 91.32229189 46.32238699 91.09677194 43.375 91.0625 C41.87066406 91.04896484 41.87066406 91.04896484 40.3359375 91.03515625 C39.56507812 91.02355469 38.79421875 91.01195313 38 91 C38 91.66 38 92.32 38 93 C35.36 93 32.72 93 30 93 C29.505 94.485 29.505 94.485 29 96 C26.06243881 96.0269501 23.12512445 96.04681474 20.1875 96.0625 C18.93743164 96.07506836 18.93743164 96.07506836 17.66210938 96.08789062 C16.45844727 96.09272461 16.45844727 96.09272461 15.23046875 96.09765625 C14.49207764 96.10289307 13.75368652 96.10812988 12.99291992 96.11352539 C11 96 11 96 8 95 C6.27204648 94.93197033 4.54164635 94.91504355 2.8125 94.9375 C1.91144531 94.94652344 1.01039062 94.95554687 0.08203125 94.96484375 C-0.60503906 94.97644531 -1.29210937 94.98804687 -2 95 C-1.12018523 99.48705534 -0.53272604 101.44249601 2.6875 104.8125 C6.26908996 107.17770092 8.85720711 108.08858556 13 109 C13 109.33 13 109.66 13 110 C-4.49 110 -21.98 110 -40 110 C-40 109.67 -40 109.34 -40 109 C-39.41992188 108.91363281 -38.83984375 108.82726562 -38.2421875 108.73828125 C-32.44632899 107.69579185 -28.95814517 106.45291331 -25 102 C-24.03161858 98.32075016 -24.03161858 98.32075016 -24 95 C-25.43739513 94.97287934 -26.87493863 94.95354933 -28.3125 94.9375 C-29.51326172 94.92009766 -29.51326172 94.92009766 -30.73828125 94.90234375 C-33.16861334 94.90342145 -33.16861334 94.90342145 -36 96 C-38.35192393 96.12025295 -40.70753531 96.17532335 -43.0625 96.1875 C-44.31160156 96.20167969 -45.56070313 96.21585937 -46.84765625 96.23046875 C-50 96 -50 96 -52 94 C-54.32275177 93.59952556 -56.65739357 93.2602896 -59 93 C-59 92.34 -59 91.68 -59 91 C-59.77085938 91.02320312 -60.54171875 91.04640625 -61.3359375 91.0703125 C-62.84027344 91.09738281 -62.84027344 91.09738281 -64.375 91.125 C-65.37273437 91.14820312 -66.37046875 91.17140625 -67.3984375 91.1953125 C-70 91 -70 91 -72 89 C-71.1646875 88.4121875 -71.1646875 88.4121875 -70.3125 87.8125 C-67.8976071 86.03664629 -67.8976071 86.03664629 -65.875 83.5625 C-62.54275884 80.59245897 -59.49896892 79.41807269 -55.34765625 77.9140625 C-52.86480965 77.04915899 -52.86480965 77.04915899 -50.4375 75.25 C-45.93037814 72.93865545 -41.22671665 73.41384463 -36.41796875 74.6796875 C-34.25111583 75.39628453 -32.12079667 76.15769778 -30 77 C-30 75.35 -30 73.7 -30 72 C-31.051875 72.020625 -32.10375 72.04125 -33.1875 72.0625 C-36.32704904 72.01103198 -38.96883396 71.73482813 -42 71 C-42 70.34 -42 69.68 -42 69 C-44.64 69 -47.28 69 -50 69 C-50 68.67 -50 68.34 -50 68 C-50.84304687 67.95101562 -51.68609375 67.90203125 -52.5546875 67.8515625 C-53.65039062 67.77679688 -54.74609375 67.70203125 -55.875 67.625 C-56.96554688 67.55539063 -58.05609375 67.48578125 -59.1796875 67.4140625 C-62 67 -62 67 -64 65 C-62.7934375 64.5978125 -62.7934375 64.5978125 -61.5625 64.1875 C-60.2940625 63.5996875 -60.2940625 63.5996875 -59 63 C-58.67 62.01 -58.34 61.02 -58 60 C-55.890625 58.83203125 -55.890625 58.83203125 -53.25 57.8125 C-52.38890625 57.46832031 -51.5278125 57.12414062 -50.640625 56.76953125 C-47.95129902 55.98580755 -45.78398044 55.85479239 -43 56 C-43 55.34 -43 54.68 -43 54 C-39.7 53.01 -36.4 52.02 -33 51 C-35.99628539 48.00371461 -39.58493471 48.2750714 -43.625 47.875 C-44.42679688 47.78863281 -45.22859375 47.70226563 -46.0546875 47.61328125 C-48.03563635 47.40103673 -50.01772718 47.19950069 -52 47 C-52 46.34 -52 45.68 -52 45 C-51.01 45 -50.02 45 -49 45 C-49 44.01 -49 43.02 -49 42 C-39.4560766 36.86096432 -30.93190528 34.75773804 -20 36 C-17.16863816 37.04147227 -15.42108977 38.15536018 -13 40 C-13 38.02 -13 36.04 -13 34 C-14.59328125 34.14308594 -14.59328125 34.14308594 -16.21875 34.2890625 C-23.61317023 34.89236745 -29.85971295 35.33682122 -37 33 C-39.32880291 32.58718715 -41.6521987 32.29347516 -44 32 C-44 31.34 -44 30.68 -44 30 C-43.34 30 -42.68 30 -42 30 C-41.75894531 29.37351563 -41.51789062 28.74703125 -41.26953125 28.1015625 C-39.67088638 25.45519038 -38.61993631 25.19312509 -35.6875 24.375 C-32.31628135 23.40198273 -29.29818107 22.31927243 -26 21 C-31.94 20.01 -31.94 20.01 -38 19 C-37.34 18.67 -36.68 18.34 -36 18 C-35.74476562 17.36578125 -35.48953125 16.7315625 -35.2265625 16.078125 C-33.48579746 13.12880333 -31.57976105 12.79341058 -28.375 11.75 C-27.37210938 11.41484375 -26.36921875 11.0796875 -25.3359375 10.734375 C-24.17964844 10.37085938 -24.17964844 10.37085938 -23 10 C-24.98 9.34 -26.96 8.68 -29 8 C-28.34 7.34 -27.68 6.68 -27 6 C-26.01 6 -25.02 6 -24 6 C-23.67 5.01 -23.34 4.02 -23 3 C-22.01 3 -21.02 3 -20 3 C-20.495 1.515 -20.495 1.515 -21 0 C-12.35898094 -4.38639965 -8.64875617 -3.90041945 0 0 Z " fill="#0F6238" transform="translate(74,7)"/>
<path d="M0 0 C0 0.99 0 1.98 0 3 C3.465 4.98 3.465 4.98 7 7 C7 7.66 7 8.32 7 9 C6.34 9 5.68 9 5 9 C5.66 10.32 6.32 11.64 7 13 C3 13 3 13 1.25 11.5 C0.8375 11.005 0.425 10.51 0 10 C-0.66 10.66 -1.32 11.32 -2 12 C-4.31765729 12.71927295 -6.65095874 13.3909893 -9 14 C-9 12.68 -9 11.36 -9 10 C-9.99 10.495 -9.99 10.495 -11 11 C-11.33 11.99 -11.66 12.98 -12 14 C-14.475 13.01 -14.475 13.01 -17 12 C-17 11.01 -17 10.02 -17 9 C-17.7734375 9.2784375 -17.7734375 9.2784375 -18.5625 9.5625 C-21.90635206 10.16267857 -24.69279457 9.68640113 -28 9 C-28.33 8.34 -28.66 7.68 -29 7 C-27.35 6.67 -25.7 6.34 -24 6 C-23.67 5.01 -23.34 4.02 -23 3 C-22.01 3 -21.02 3 -20 3 C-20.33 2.01 -20.66 1.02 -21 0 C-12.35898094 -4.38639965 -8.64875617 -3.90041945 0 0 Z " fill="#236F49" transform="translate(74,7)"/>
<path d="M0 0 C0 0.66 0 1.32 0 2 C3.96 2.33 7.92 2.66 12 3 C12.33 4.98 12.66 6.96 13 9 C12.40574219 8.7834375 11.81148437 8.566875 11.19921875 8.34375 C4.64477678 6.14194679 -1.1134378 5.64650726 -8 6 C-8.33 5.01 -8.66 4.02 -9 3 C-6.38997624 -0.48003168 -4.1689578 -0.27793052 0 0 Z " fill="#F6F9F8" transform="translate(32,76)"/>
<path d="M0 0 C4.38889325 0.66498383 7.9811485 2.18757677 12 4 C10 6 10 6 7.6171875 6.1953125 C6.71226563 6.17210938 5.80734375 6.14890625 4.875 6.125 C3.50988281 6.09792969 3.50988281 6.09792969 2.1171875 6.0703125 C1.41851562 6.04710938 0.71984375 6.02390625 0 6 C0 5.34 0 4.68 0 4 C-0.99 3.67 -1.98 3.34 -3 3 C-2.01 3 -1.02 3 0 3 C0 2.01 0 1.02 0 0 Z " fill="#116038" transform="translate(113,92)"/>
<path d="M0 0 C5.94 0 11.88 0 18 0 C18 1.98 18 3.96 18 6 C17.401875 5.690625 16.80375 5.38125 16.1875 5.0625 C12.35705479 3.20199804 9.02232697 2.7543687 4.8125 2.4375 C3.18248047 2.31181641 3.18248047 2.31181641 1.51953125 2.18359375 C0.68808594 2.12300781 -0.14335938 2.06242187 -1 2 C-0.67 1.34 -0.34 0.68 0 0 Z " fill="#B9D4C6" transform="translate(43,41)"/>
<path d="M0 0 C-0.33 1.32 -0.66 2.64 -1 4 C-0.34 4 0.32 4 1 4 C1 4.66 1 5.32 1 6 C-3.75207471 6.43200679 -6.78210698 4.98489083 -11 3 C-10 1 -10 1 -8.3125 0.375 C-5.51555886 -0.07855802 -2.82858003 -0.06428591 0 0 Z " fill="#EDF5F0" transform="translate(90,26)"/>
<path d="M0 0 C1.65 0 3.3 0 5 0 C5.3125 3.3125 5.3125 3.3125 5 7 C2.5 8.9375 2.5 8.9375 0 10 C0 6.7 0 3.4 0 0 Z " fill="#D3E6DE" transform="translate(67,56)"/>
<path d="M0 0 C-0.33 0.99 -0.66 1.98 -1 3 C-3.64 3 -6.28 3 -9 3 C-9.33 3.99 -9.66 4.98 -10 6 C-10.66 5.67 -11.32 5.34 -12 5 C-12 2 -12 2 -10.5 0.25 C-6.74433183 -1.62783409 -4.08579998 -0.74906333 0 0 Z " fill="#337755" transform="translate(113,97)"/>
<path d="M0 0 C2.50357861 0.8345262 4.66785852 1.79371992 7 3 C6.12988281 3.20302734 6.12988281 3.20302734 5.2421875 3.41015625 C-1.16541393 5.1759474 -4.12024798 7.72099316 -8 13 C-8.66 13.66 -9.32 14.32 -10 15 C-9.53234153 10.2809009 -7.65065406 8.08167683 -4.4375 4.6875 C-3.61121094 3.80449219 -2.78492187 2.92148438 -1.93359375 2.01171875 C-1.29550781 1.34785156 -0.65742187 0.68398437 0 0 Z " fill="#C6E1D4" transform="translate(82,79)"/>
<path d="M0 0 C1.65 0 3.3 0 5 0 C5 2.97 5 5.94 5 9 C1 7 1 7 0 6 C-0.04080783 4.00041636 -0.04254356 1.99954746 0 0 Z " fill="#D4E7DC" transform="translate(55,56)"/>
<path d="M0 0 C2.31 0 4.62 0 7 0 C7 3 7 3 4.5 5.6875 C3.675 6.450625 2.85 7.21375 2 8 C2 7.01 2 6.02 2 5 C1.34 4.67 0.68 4.34 0 4 C0 2.68 0 1.36 0 0 Z " fill="#538E6F" transform="translate(74,78)"/>
<path d="M0 0 C1.22589844 0.15275391 1.22589844 0.15275391 2.4765625 0.30859375 C3.41628906 0.43427734 3.41628906 0.43427734 4.375 0.5625 C4.375 1.5525 4.375 2.5425 4.375 3.5625 C2.065 3.5625 -0.245 3.5625 -2.625 3.5625 C-2.625 2.9025 -2.625 2.2425 -2.625 1.5625 C-3.285 1.5625 -3.945 1.5625 -4.625 1.5625 C-4.625 2.2225 -4.625 2.8825 -4.625 3.5625 C-6.605 3.5625 -8.585 3.5625 -10.625 3.5625 C-6.69868091 0.55232203 -4.96380923 -0.63820404 0 0 Z " fill="#7EAC95" transform="translate(47.625,56.4375)"/>
<path d="M0 0 C1.32 0 2.64 0 4 0 C4.33 1.32 4.66 2.64 5 4 C1.32589215 5.17571451 -2.16929183 5.07366746 -6 5 C-6 4.34 -6 3.68 -6 3 C-4.02 2.67 -2.04 2.34 0 2 C0 1.34 0 0.68 0 0 Z " fill="#0C5E34" transform="translate(36,34)"/>
<path d="M0 0 C0 0.33 0 0.66 0 1 C-1.5778125 1.433125 -1.5778125 1.433125 -3.1875 1.875 C-6.86369 2.87083212 -6.86369 2.87083212 -9.6875 4.1875 C-12.28435533 5.09990863 -13.45722622 4.94176807 -16 4 C-10.45834744 0.22695996 -6.65545792 -0.54330269 0 0 Z " fill="#478264" transform="translate(35,81)"/>
<path d="M0 0 C3.63 0.33 7.26 0.66 11 1 C11 1.33 11 1.66 11 2 C10.06027344 2.30744141 10.06027344 2.30744141 9.1015625 2.62109375 C8.28429687 2.89050781 7.46703125 3.15992188 6.625 3.4375 C5.81289062 3.70433594 5.00078125 3.97117188 4.1640625 4.24609375 C1.98968201 4.95179729 1.98968201 4.95179729 0 6 C0 4.02 0 2.04 0 0 Z " fill="#E7F3ED" transform="translate(67,41)"/>
<path d="M0 0 C0.99 0 1.98 0 3 0 C3.29296875 6.0546875 3.29296875 6.0546875 3 8 C2.01 8.66 1.02 9.32 0 10 C0 6.7 0 3.4 0 0 Z " fill="#82B099" transform="translate(68,77)"/>
<path d="M0 0 C1.32 0 2.64 0 4 0 C4.33 1.98 4.66 3.96 5 6 C1.7 5.01 -1.6 4.02 -5 3 C-5 2.67 -5 2.34 -5 2 C-3.35 2 -1.7 2 0 2 C0 1.34 0 0.68 0 0 Z " fill="#D7E9E0" transform="translate(40,79)"/>
<path d="M0 0 C1.875 0.25 1.875 0.25 4 1 C5.25 3.0625 5.25 3.0625 6 5 C3.36 5.33 0.72 5.66 -2 6 C-2.33 5.34 -2.66 4.68 -3 4 C-2.34 4 -1.68 4 -1 4 C-0.67 2.68 -0.34 1.36 0 0 Z " fill="#1C6441" transform="translate(85,21)"/>
<path d="M0 0 C0.66 0.66 1.32 1.32 2 2 C-2.29 2 -6.58 2 -11 2 C-10.67 1.34 -10.34 0.68 -10 0 C-6.40465885 -0.87886117 -3.49460264 -1.37287961 0 0 Z " fill="#F0F9F5" transform="translate(95,79)"/>
<path d="M0 0 C1.65 0 3.3 0 5 0 C5 2.31 5 4.62 5 7 C4.01 6.67 3.02 6.34 2 6 C0.8125 2.9375 0.8125 2.9375 0 0 Z " fill="#DBEEE4" transform="translate(47,78)"/>
<path d="M0 0 C0.66 0 1.32 0 2 0 C3.625 2 3.625 2 5 4 C1.25 5.125 1.25 5.125 -1 4 C-2.37342831 3.9310528 -3.75002102 3.91532292 -5.125 3.9375 C-7.043125 3.9684375 -7.043125 3.9684375 -9 4 C-8.67 3.34 -8.34 2.68 -8 2 C-5.36 2 -2.72 2 0 2 C0 1.34 0 0.68 0 0 Z " fill="#0A5C34" transform="translate(43,58)"/>
<path d="M0 0 C1.9375 0.8125 1.9375 0.8125 4 2 C4.33 2.99 4.66 3.98 5 5 C1.93109813 6.53445094 -0.70094266 5.54984289 -4 5 C-3.34 4.67 -2.68 4.34 -2 4 C-0.86649466 1.98330173 -0.86649466 1.98330173 0 0 Z " fill="#206843" transform="translate(40,21)"/>
<path d="M0 0 C0.99 0 1.98 0 3 0 C3 3.63 3 7.26 3 11 C2.34 10.67 1.68 10.34 1 10 C0.5859375 7.71484375 0.5859375 7.71484375 0.375 4.9375 C0.30023438 4.01839844 0.22546875 3.09929687 0.1484375 2.15234375 C0.09945312 1.44207031 0.05046875 0.73179688 0 0 Z " fill="#DFEFE7" transform="translate(56,77)"/>
<path d="M0 0 C2.97 0.33 5.94 0.66 9 1 C9.33 2.32 9.66 3.64 10 5 C7.69 5.33 5.38 5.66 3 6 C3 5.34 3 4.68 3 4 C3.66 4 4.32 4 5 4 C5 3.34 5 2.68 5 2 C3.35 2 1.7 2 0 2 C0 1.34 0 0.68 0 0 Z " fill="#C6DAD0" transform="translate(32,54)"/>
<path d="M0 0 C0.66 0.33 1.32 0.66 2 1 C2 1.66 2 2.32 2 3 C2.66 3 3.32 3 4 3 C4 3.66 4 4.32 4 5 C-0.455 5.495 -0.455 5.495 -5 6 C-5 5.01 -5 4.02 -5 3 C-3.35 3 -1.7 3 0 3 C0 2.01 0 1.02 0 0 Z " fill="#246948" transform="translate(94,34)"/>
<path d="M0 0 C0.33 0.66 0.66 1.32 1 2 C3.01669827 3.13350534 3.01669827 3.13350534 5 4 C1.7169902 5.6415049 -1.42545033 4.51888624 -5 4 C-5 3.01 -5 2.02 -5 1 C-2 0 -2 0 0 0 Z " fill="#327852" transform="translate(20,96)"/>
<path d="M0 0 C1.65 0.33 3.3 0.66 5 1 C5.33 1.99 5.66 2.98 6 4 C3.03 4 0.06 4 -3 4 C-3.33 4.66 -3.66 5.32 -4 6 C-4 5.34 -4 4.68 -4 4 C-4.66 3.67 -5.32 3.34 -6 3 C-3.69 3 -1.38 3 1 3 C0.67 2.01 0.34 1.02 0 0 Z " fill="#3B7F5D" transform="translate(98,72)"/>
<path d="M0 0 C1.98 0 3.96 0 6 0 C6.33 0.66 6.66 1.32 7 2 C2.25 5 2.25 5 0 5 C0 3.35 0 1.7 0 0 Z " fill="#D7EBE1" transform="translate(66,28)"/>
<path d="M0 0 C1.32 0.66 2.64 1.32 4 2 C2.6875 3.5 2.6875 3.5 1 5 C0.01 5 -0.98 5 -2 5 C-2 5.66 -2 6.32 -2 7 C-3.32 6.34 -4.64 5.68 -6 5 C-5.195625 4.731875 -4.39125 4.46375 -3.5625 4.1875 C-2.716875 3.795625 -1.87125 3.40375 -1 3 C-0.67 2.01 -0.34 1.02 0 0 Z " fill="#2F6E4D" transform="translate(16,67)"/>
<path d="M0 0 C-0.66 0 -1.32 0 -2 0 C-2 0.66 -2 1.32 -2 2 C-3.32 2.33 -4.64 2.66 -6 3 C-6 3.99 -6 4.98 -6 6 C-6.66 6 -7.32 6 -8 6 C-7.75 3.625 -7.75 3.625 -7 1 C-4.12732844 -1.10662581 -3.46720491 -1.15573497 0 0 Z " fill="#075E32" transform="translate(83,87)"/>
<path d="M0 0 C1.98 0 3.96 0 6 0 C6 1.65 6 3.3 6 5 C3.69 4.01 1.38 3.02 -1 2 C-0.67 1.34 -0.34 0.68 0 0 Z " fill="#DCEFE4" transform="translate(55,28)"/>
<path d="M0 0 C-0.598125 0.28875 -1.19625 0.5775 -1.8125 0.875 C-4.19327792 2.04742026 -4.19327792 2.04742026 -7 4 C-7.99 3.67 -8.98 3.34 -10 3 C-9.34 3 -8.68 3 -8 3 C-7.67 2.01 -7.34 1.02 -7 0 C-4.3333581 -1.33332095 -2.83319697 -0.67102033 0 0 Z " fill="#D4E7E1" transform="translate(49,28)"/>
<path d="M0 0 C2.1875 0.3125 2.1875 0.3125 4 1 C2.68 2.32 1.36 3.64 0 5 C-0.99 4.34 -1.98 3.68 -3 3 C-1.75 1.4375 -1.75 1.4375 0 0 Z " fill="#216C46" transform="translate(9,89)"/>
<path d="M0 0 C1.98 0 3.96 0 6 0 C6 1.32 6 2.64 6 4 C3.03 3.505 3.03 3.505 0 3 C0 2.01 0 1.02 0 0 Z " fill="#D7E9E1" transform="translate(84,40)"/>
<path d="M0 0 C4.875 1.75 4.875 1.75 6 4 C5.01 4.33 4.02 4.66 3 5 C0.8125 3.5625 0.8125 3.5625 -1 2 C-0.67 1.34 -0.34 0.68 0 0 Z " fill="#296F4A" transform="translate(115,89)"/>
<path d="M0 0 C0.598125 0.20625 1.19625 0.4125 1.8125 0.625 C-0.1675 1.615 -0.1675 1.615 -2.1875 2.625 C-1.8575 3.285 -1.5275 3.945 -1.1875 4.625 C-2.5075 4.955 -3.8275 5.285 -5.1875 5.625 C-5.1875 4.305 -5.1875 2.985 -5.1875 1.625 C-2.1875 -0.375 -2.1875 -0.375 0 0 Z " fill="#D9EAE0" transform="translate(18.1875,65.375)"/>
<path d="M0 0 C1.32 0.66 2.64 1.32 4 2 C2.75 3.5 2.75 3.5 1 5 C-0.32 5 -1.64 5 -3 5 C-3 4.34 -3 3.68 -3 3 C-2.01 3 -1.02 3 0 3 C0 2.01 0 1.02 0 0 Z " fill="#3F7D5E" transform="translate(25,49)"/>
<path d="M0 0 C1.65 0 3.3 0 5 0 C4.67 0.99 4.34 1.98 4 3 C1.4375 4.1875 1.4375 4.1875 -1 5 C-0.67 3.35 -0.34 1.7 0 0 Z " fill="#E1F0E9" transform="translate(38,40)"/>
<path d="M0 0 C0 0.33 0 0.66 0 1 C-1.2065625 1.185625 -1.2065625 1.185625 -2.4375 1.375 C-3.283125 1.58125 -4.12875 1.7875 -5 2 C-5.33 2.66 -5.66 3.32 -6 4 C-7.65 3.67 -9.3 3.34 -11 3 C-10 1 -10 1 -8.3125 0.375 C-5.51555886 -0.07855802 -2.82858003 -0.06428591 0 0 Z " fill="#D1E7DC" transform="translate(90,26)"/>
<path d="M0 0 C0.99 0.33 1.98 0.66 3 1 C3.33 1.99 3.66 2.98 4 4 C2.68 4.99 1.36 5.98 0 7 C-0.38133299 5.0085944 -0.71325582 3.00720923 -1 1 C-0.67 0.67 -0.34 0.34 0 0 Z " fill="#206A46" transform="translate(45,79)"/>
<path d="M0 0 C2.475 0.99 2.475 0.99 5 2 C5 2.99 5 3.98 5 5 C3.35 4.67 1.7 4.34 0 4 C0 2.68 0 1.36 0 0 Z " fill="#427D61" transform="translate(108,66)"/>
<path d="M0 0 C0 0.99 0 1.98 0 3 C-0.66 3 -1.32 3 -2 3 C-2.33 3.66 -2.66 4.32 -3 5 C-5.97 4.505 -5.97 4.505 -9 4 C-9 3.67 -9 3.34 -9 3 C-6.03 2.01 -3.06 1.02 0 0 Z " fill="#2A6C4D" transform="translate(51,17)"/>
</svg>
