<?xml version="1.0" encoding="UTF-8"?>
<svg version="1.1" xmlns="http://www.w3.org/2000/svg" width="334" height="152">
<path d="M0 0 C110.22 0 220.44 0 334 0 C334 50.16 334 100.32 334 152 C223.78 152 113.56 152 0 152 C0 101.84 0 51.68 0 0 Z " fill="#FBFDFD" transform="translate(0,0)"/>
<path d="M0 0 C42.73913043 0 42.73913043 0 49 6 C49 6.66 49 7.32 49 8 C49.66 8 50.32 8 51 8 C51.66 12.29 52.32 16.58 53 21 C54.49743119 19.50256881 54.33202693 18.01175761 54.5625 15.9375 C54.706875 14.638125 54.85125 13.33875 55 12 C55.66 12 56.32 12 57 12 C57.103125 11.401875 57.20625 10.80375 57.3125 10.1875 C58.11670876 7.62865395 59.01201073 6.76710157 61 5 C61.9590625 3.948125 61.9590625 3.948125 62.9375 2.875 C67.64805319 -1.40732108 74.93649738 -0.46367579 80.984375 -0.35546875 C86.03043476 -0.0757877 90.25113945 1.54325845 94 5 C94.495 6.485 94.495 6.485 95 8 C95.804375 7.979375 96.60875 7.95875 97.4375 7.9375 C100 8 100 8 101 9 C101.04080783 10.99958364 101.04254356 13.00045254 101 15 C101.66 15 102.32 15 103 15 C103 49.98 103 84.96 103 121 C81.88 121 60.76 121 39 121 C39.33 120.34 39.66 119.68 40 119 C37.69 118.67 35.38 118.34 33 118 C33 93.91 33 69.82 33 45 C27.94772642 42.16437098 27.94772642 42.16437098 17 42 C17 52.89 17 63.78 17 75 C11.39 75 5.78 75 0 75 C0 50.25 0 25.5 0 0 Z " fill="#F4F9FB" transform="translate(231,31)"/>
<path d="M0 0 C0.33 11.22 0.66 22.44 1 34 C2.98 31.69 4.96 29.38 7 27 C13.40275979 24.50203155 19.87809417 24.69772049 26.6875 24.75 C27.70650391 24.74226563 28.72550781 24.73453125 29.77539062 24.7265625 C31.25362305 24.73042969 31.25362305 24.73042969 32.76171875 24.734375 C33.64819092 24.73663086 34.53466309 24.73888672 35.44799805 24.74121094 C40.66156843 25.26989979 44.14505794 27.56180844 48 31 C50.67927341 35.01891012 50.15601248 37.24161923 50 42 C47.36 42 44.72 42 42 42 C41.525625 41.030625 41.05125 40.06125 40.5625 39.0625 C39.29806053 36.19522563 39.29806053 36.19522563 38 35 C35.36424457 34.89975874 32.76045755 34.86124979 30.125 34.875 C29.39152344 34.87113281 28.65804687 34.86726563 27.90234375 34.86328125 C24.67566762 34.86915862 22.08156579 34.9728114 19 36 C18.03619923 38.8914023 17.84887976 40.82653923 17.79467773 43.83862305 C17.77473251 44.8194133 17.75478729 45.80020355 17.73423767 46.81071472 C17.71752518 47.86704605 17.70081268 48.92337738 17.68359375 50.01171875 C17.6524221 51.63676079 17.6524221 51.63676079 17.62062073 53.29463196 C17.55518203 56.75885616 17.49626647 60.2231568 17.4375 63.6875 C17.39430939 66.03451315 17.35069493 68.38151853 17.30664062 70.72851562 C17.19950643 76.48559604 17.09772936 82.24275267 17 88 C18.98 88.99 18.98 88.99 21 90 C21 90.66 21 91.32 21 92 C27.27 91.67 33.54 91.34 40 91 C40 90.34 40 89.68 40 89 C40.66 89 41.32 89 42 89 C42 87.35 42 85.7 42 84 C44.64 84 47.28 84 50 84 C50.29247353 88.97204999 50.32606689 92.15423516 47 96 C40.05816893 100.42869175 34.10779949 100.6103102 26 100.5 C24.86304688 100.51546875 23.72609375 100.5309375 22.5546875 100.546875 C15.58576492 100.51453661 10.88258998 99.82093462 5 96 C3.33715249 94.06476903 2.23200688 92.25867927 1 90 C0.505 95.94 0.505 95.94 0 102 C-1.0621875 101.98839844 -2.124375 101.97679688 -3.21875 101.96484375 C-11.75866312 101.78420061 -11.75866312 101.78420061 -20.25 102.5 C-25.5031598 103.20042131 -30.70859197 103.07937112 -36 103 C-34.6813358 99.97888427 -33.40925681 98.24690703 -30.77734375 96.2734375 C-30.15666016 95.7990625 -29.53597656 95.3246875 -28.89648438 94.8359375 C-28.25001953 94.35382813 -27.60355469 93.87171875 -26.9375 93.375 C-22.33688834 90.25140896 -22.33688834 90.25140896 -19 86 C-18.77377919 84.29636178 -18.59111527 82.58671299 -18.4375 80.875 C-18.31181641 79.50988281 -18.31181641 79.50988281 -18.18359375 78.1171875 C-18.12300781 77.41851562 -18.06242187 76.71984375 -18 76 C-19.093125 76.04125 -20.18625 76.0825 -21.3125 76.125 C-24.72293164 76.14288688 -27.73820696 75.6789965 -31.0625 74.9375 C-38.11796972 73.51646877 -44.88735608 74.28969548 -52 75 C-52 75.66 -52 76.32 -52 77 C-55.4416167 78.02804253 -58.69525709 78.19824128 -62.27734375 78.31640625 C-63.51419922 78.35830078 -64.75105469 78.40019531 -66.02539062 78.44335938 C-67.31638672 78.48267578 -68.60738281 78.52199219 -69.9375 78.5625 C-71.19369141 78.60568359 -72.44988281 78.64886719 -73.74414062 78.69335938 C-81.83221256 78.95642005 -89.90793329 79.05378207 -98 79 C-98 78.34 -98 77.68 -98 77 C-95.31610441 74.53081606 -92.35016273 73.18614433 -88.9921875 71.82421875 C-86.77413824 70.90655523 -84.61285388 69.8894327 -82.4375 68.875 C-78.97040233 67.3195555 -75.809733 66.39074185 -72 66 C-72 65.34 -72 64.68 -72 64 C-68.45831328 61.87498797 -65.0535699 61.52502481 -61 61 C-62.20398437 60.93941406 -63.40796875 60.87882812 -64.6484375 60.81640625 C-66.22397077 60.73200268 -67.79949096 60.64735459 -69.375 60.5625 C-70.56609375 60.50352539 -70.56609375 60.50352539 -71.78125 60.44335938 C-77.7734375 60.11328125 -77.7734375 60.11328125 -80 59 C-79 56 -79 56 -77.34863281 55.06445312 C-76.64061523 54.80599609 -75.93259766 54.54753906 -75.203125 54.28125 C-74.41574951 53.99032471 -73.62837402 53.69939941 -72.81713867 53.3996582 C-71.96998291 53.102771 -71.12282715 52.80588379 -70.25 52.5 C-69.38544189 52.18957764 -68.52088379 51.87915527 -67.63012695 51.55932617 C-61.85589364 49.53080263 -56.10664875 47.90816914 -50.10546875 46.68359375 C-46.66847778 45.92702341 -43.36175991 44.91422391 -40 43.875 C-33.34319355 41.91535585 -26.91771287 41.22982435 -20 41 C-20 40.34 -20 39.68 -20 39 C-26.93 38.505 -26.93 38.505 -34 38 C-34 38.66 -34 39.32 -34 40 C-45.63826089 42.01469054 -57.21470401 42.58500103 -69 43 C-62.12097955 34.92462817 -53.26979528 33.08229575 -43.1875 31.8125 C-40.97255904 31.50721488 -38.75771461 31.20122853 -36.54296875 30.89453125 C-34.92720947 30.67724365 -34.92720947 30.67724365 -33.27880859 30.45556641 C-24.5671643 30.01608819 -24.5671643 30.01608819 -17 27 C-18.68802734 27.10828125 -18.68802734 27.10828125 -20.41015625 27.21875 C-30.29169105 27.82539708 -40.0994528 28.13142319 -50 28 C-49 25 -49 25 -47.0234375 23.75390625 C-38.86030553 20.08170086 -29.06693593 16 -20 16 C-20 15.34 -20 14.68 -20 14 C-21.65 14 -23.3 14 -25 14 C-25 12.68 -25 11.36 -25 10 C-23.948125 9.61908203 -23.948125 9.61908203 -22.875 9.23046875 C-20.9040588 8.51546698 -18.93405158 7.79788694 -16.96484375 7.078125 C-15.18981918 6.43266152 -13.41202021 5.79464297 -11.62890625 5.171875 C-7.8918926 3.84378697 -3.71495727 0 0 0 Z " fill="#16924B" transform="translate(107,6)"/>
<path d="M0 0 C40.6 0 40.6 0 48 7 C51.9629036 12.46607393 51.63276928 18.52494997 51 25 C50.35225177 27.90733508 49.62898896 29.41608648 48 32 C45.375 33.1875 45.375 33.1875 43 34 C42.11306697 36.04105639 42.11306697 36.04105639 42 38 C42.763125 37.938125 43.52625 37.87625 44.3125 37.8125 C47 38 47 38 48.64668274 39.06013489 C50.66666066 41.95560132 50.39372053 44.82298622 50.34057617 48.2253418 C50.34123329 49.3232756 50.34123329 49.3232756 50.34190369 50.44338989 C50.33981398 52.86227105 50.31647515 55.28045871 50.29296875 57.69921875 C50.28737342 59.37644573 50.28310303 61.05367762 50.28010559 62.73091125 C50.26865178 67.14512675 50.23918011 71.55904605 50.20599365 75.97314453 C50.17530425 80.4774983 50.16160268 84.98189994 50.14648438 89.48632812 C50.11431076 98.32436981 50.06153857 107.16211394 50 116 C44.72 116 39.44 116 34 116 C33.67 92.57 33.34 69.14 33 45 C27.94772642 42.16437098 27.94772642 42.16437098 17 42 C17 52.89 17 63.78 17 75 C11.39 75 5.78 75 0 75 C0 50.25 0 25.5 0 0 Z " fill="#155FA3" transform="translate(231,31)"/>
<path d="M0 0 C2.64 0 5.28 0 8 0 C8 32.34 8 64.68 8 98 C6.02 98 4.04 98 2 98 C-0.375 95.4375 -0.375 95.4375 -1.6015625 93.76953125 C-4.27358185 90.38845649 -7.73208419 87.78595701 -11 85 C-12.50318549 83.67025899 -14.0031367 82.33685378 -15.5 81 C-18.25586669 78.5446026 -21.02438673 76.10617383 -23.8125 73.6875 C-27.94200783 70.09190834 -31.95965102 66.3770745 -35.96411133 62.64331055 C-38.76249243 60.0181341 -38.76249243 60.0181341 -42 58 C-42 71.2 -42 84.4 -42 98 C-44.97 98 -47.94 98 -51 98 C-51 73.25 -51 48.5 -51 23 C-45.08626198 23 -45.08626198 23 -42 25 C-40.39453125 26.62890625 -40.39453125 26.62890625 -38.8125 28.5625 C-32.38631688 36.12111029 -25.38172716 42.65715384 -17.6484375 48.86328125 C-7.14368482 57.33835458 -7.14368482 57.33835458 -3 62 C-3 62.66 -3 63.32 -3 64 C-2.01 64 -1.02 64 0 64 C0 42.88 0 21.76 0 0 Z " fill="#1861A5" transform="translate(215,8)"/>
<path d="M0 0 C1.93745885 1.69249279 3.34014499 3.29659773 4.69921875 5.484375 C4.88671875 9.234375 4.88671875 9.234375 4.69921875 12.484375 C2.38921875 12.484375 0.07921875 12.484375 -2.30078125 12.484375 C-2.45546875 11.55625 -2.45546875 11.55625 -2.61328125 10.609375 C-3.17603498 8.11911016 -3.17603498 8.11911016 -6.30078125 6.484375 C-8.48265072 6.1685756 -8.48265072 6.1685756 -10.80078125 6.234375 C-11.57421875 6.22921875 -12.34765625 6.2240625 -13.14453125 6.21875 C-15.59591969 6.35699438 -15.59591969 6.35699438 -18.30078125 8.484375 C-18.96790032 12.74247095 -18.63468024 15.47404095 -16.17578125 18.94921875 C-15.23591151 20.12181181 -14.27659279 21.2790183 -13.30078125 22.421875 C-12.8011084 23.03305176 -12.30143555 23.64422852 -11.78662109 24.27392578 C-8.99185681 27.64500393 -6.07503773 30.81268052 -2.92578125 33.859375 C2.86309492 39.51722722 5.96839198 43.64575785 6.19921875 51.984375 C5.68550907 62.55211694 5.68550907 62.55211694 2.69921875 66.484375 C-2.97716473 71.63096269 -9.74755117 71.95180998 -17.05078125 72.046875 C-17.86675781 72.06169922 -18.68273437 72.07652344 -19.5234375 72.09179688 C-24.88049942 71.99973607 -28.10041666 71.09022645 -32.30078125 67.484375 C-34.53380847 63.39049177 -35.72569058 60.15837765 -35.30078125 55.484375 C-32.66078125 55.484375 -30.02078125 55.484375 -27.30078125 55.484375 C-26.99140625 56.28875 -26.68203125 57.093125 -26.36328125 57.921875 C-25.5374278 60.37517905 -25.5374278 60.37517905 -24.30078125 61.484375 C-22.65847761 61.6089236 -21.01025849 61.66006024 -19.36328125 61.671875 C-18.01943359 61.69314453 -18.01943359 61.69314453 -16.6484375 61.71484375 C-14.10963591 61.71632269 -14.10963591 61.71632269 -12.30078125 59.484375 C-11.8304898 54.76186502 -12.84529053 50.57200225 -15.61328125 46.734375 C-18.18627585 43.6055636 -20.98061144 40.69136581 -23.76147461 37.7487793 C-31.73399673 29.27805049 -36.94261403 23.36685013 -36.671875 11.18359375 C-36.07702804 6.85686478 -34.45419802 4.39522125 -31.30078125 1.484375 C-30.66140625 0.783125 -30.02203125 0.081875 -29.36328125 -0.640625 C-22.48348012 -6.89498966 -7.21494885 -4.5926197 0 0 Z " fill="#1760A6" transform="translate(323.30078125,34.515625)"/>
<path d="M0 0 C1.02802734 -0.01224609 2.05605469 -0.02449219 3.11523438 -0.03710938 C4.60700195 -0.04000977 4.60700195 -0.04000977 6.12890625 -0.04296875 C7.02810791 -0.04707764 7.92730957 -0.05118652 8.85375977 -0.05541992 C14.08900328 0.43679092 17.57155724 2.739497 21.4375 6.1875 C24.11677341 10.20641012 23.59351248 12.42911923 23.4375 17.1875 C20.7975 17.1875 18.1575 17.1875 15.4375 17.1875 C14.963125 16.218125 14.48875 15.24875 14 14.25 C12.73556053 11.38272563 12.73556053 11.38272563 11.4375 10.1875 C8.80174457 10.08725874 6.19795755 10.04874979 3.5625 10.0625 C2.46228516 10.05669922 2.46228516 10.05669922 1.33984375 10.05078125 C-1.88683238 10.05665862 -4.48093421 10.1603114 -7.5625 11.1875 C-8.52630077 14.0789023 -8.71362024 16.01403923 -8.76782227 19.02612305 C-8.78776749 20.0069133 -8.80771271 20.98770355 -8.82826233 21.99821472 C-8.85333107 23.58271172 -8.85333107 23.58271172 -8.87890625 25.19921875 C-8.89968735 26.28258011 -8.92046844 27.36594147 -8.94187927 28.48213196 C-9.00731797 31.94635616 -9.06623353 35.4106568 -9.125 38.875 C-9.16819061 41.22201315 -9.21180507 43.56901853 -9.25585938 45.91601562 C-9.36299357 51.67309604 -9.46477064 57.43025267 -9.5625 63.1875 C-8.2425 63.8475 -6.9225 64.5075 -5.5625 65.1875 C-5.5625 65.8475 -5.5625 66.5075 -5.5625 67.1875 C0.7075 66.8575 6.9775 66.5275 13.4375 66.1875 C13.4375 65.5275 13.4375 64.8675 13.4375 64.1875 C14.0975 64.1875 14.7575 64.1875 15.4375 64.1875 C15.4375 62.5375 15.4375 60.8875 15.4375 59.1875 C18.0775 59.1875 20.7175 59.1875 23.4375 59.1875 C23.72997353 64.15954999 23.76356689 67.34173516 20.4375 71.1875 C13.49566893 75.61619175 7.54529949 75.7978102 -0.5625 75.6875 C-1.69945312 75.70296875 -2.83640625 75.7184375 -4.0078125 75.734375 C-10.62789361 75.70365537 -16.15576949 75.29026482 -21.5625 71.1875 C-23.18359375 69.1875 -23.18359375 69.1875 -24 67.1875 C-24.28746094 66.5275 -24.57492188 65.8675 -24.87109375 65.1875 C-26.12983861 61.54638491 -26.69137829 58.32603496 -26.72363281 54.46655273 C-26.73324036 53.53556259 -26.7428479 52.60457245 -26.75274658 51.64537048 C-26.75699646 50.64735916 -26.76124634 49.64934784 -26.765625 48.62109375 C-26.77132507 47.59065445 -26.77702515 46.56021515 -26.78289795 45.49855042 C-26.79233484 43.32236759 -26.79887672 41.14617057 -26.80273438 38.9699707 C-26.81247365 35.63402695 -26.84352323 32.29869071 -26.875 28.96289062 C-26.88152697 26.84896199 -26.88677864 24.73502896 -26.890625 22.62109375 C-26.9029718 21.6210582 -26.9153186 20.62102264 -26.92803955 19.59068298 C-26.92503845 18.662845 -26.92203735 17.73500702 -26.91894531 16.77905273 C-26.92259094 15.96282944 -26.92623657 15.14660614 -26.92999268 14.3056488 C-26.47440995 11.67976789 -25.51508329 10.92778611 -23.5625 9.1875 C-23.253125 8.3625 -22.94375 7.5375 -22.625 6.6875 C-21.35767741 3.70556449 -20.38048397 2.75304665 -17.5625 1.1875 C-11.77682587 -0.16778715 -5.90738969 0.00371768 0 0 Z " fill="#2165A5" transform="translate(133.5625,30.8125)"/>
<path d="M0 0 C0.33 11.22 0.66 22.44 1 34 C1.99 33.34 2.98 32.68 4 32 C2.125 35.875 2.125 35.875 1 37 C0.90180448 38.4415579 0.8720166 39.8878659 0.87060547 41.33276367 C0.86587723 42.71506416 0.86587723 42.71506416 0.86105347 44.12528992 C0.8630777 45.12937393 0.86510193 46.13345795 0.8671875 47.16796875 C0.86575241 48.70932243 0.86575241 48.70932243 0.86428833 50.28181458 C0.86360607 52.46334901 0.86546354 54.64488545 0.86962891 56.82641602 C0.87494936 60.15580871 0.86969959 63.48506481 0.86328125 66.81445312 C0.86394256 68.93229196 0.86522481 71.05013072 0.8671875 73.16796875 C0.86415115 74.65891304 0.86415115 74.65891304 0.86105347 76.17997742 C0.87692781 80.90021185 1.01753108 85.35839533 2 90 C1.67 90 1.34 90 1 90 C0.505 95.94 0.505 95.94 0 102 C-1.0621875 101.98839844 -2.124375 101.97679688 -3.21875 101.96484375 C-11.75866312 101.78420061 -11.75866312 101.78420061 -20.25 102.5 C-25.5031598 103.20042131 -30.70859197 103.07937112 -36 103 C-34.6813358 99.97888427 -33.40925681 98.24690703 -30.77734375 96.2734375 C-30.15666016 95.7990625 -29.53597656 95.3246875 -28.89648438 94.8359375 C-28.25001953 94.35382813 -27.60355469 93.87171875 -26.9375 93.375 C-22.33688834 90.25140896 -22.33688834 90.25140896 -19 86 C-18.77377919 84.29636178 -18.59111527 82.58671299 -18.4375 80.875 C-18.35371094 79.96492188 -18.26992187 79.05484375 -18.18359375 78.1171875 C-18.09271484 77.06917969 -18.09271484 77.06917969 -18 76 C-17.34 76 -16.68 76 -16 76 C-15.08683048 88.34469906 -15.08683048 88.34469906 -17.23046875 92.23046875 C-19.611262 94.611262 -21.81392294 95.93797431 -25 97 C-25 97.66 -25 98.32 -25 99 C-17.41 99.33 -9.82 99.66 -2 100 C-2 80.53 -2 61.06 -2 41 C-3.98 41.99 -3.98 41.99 -6 43 C-8.93261719 43.22705078 -8.93261719 43.22705078 -12.296875 43.1953125 C-14.10478516 43.18564453 -14.10478516 43.18564453 -15.94921875 43.17578125 C-17.20347656 43.15902344 -18.45773438 43.14226563 -19.75 43.125 C-21.01972656 43.11597656 -22.28945312 43.10695312 -23.59765625 43.09765625 C-26.73196093 43.07409005 -29.86588541 43.04118832 -33 43 C-33 42.67 -33 42.34 -33 42 C-26.565 41.505 -26.565 41.505 -20 41 C-20 40.34 -20 39.68 -20 39 C-26.93 38.505 -26.93 38.505 -34 38 C-34 38.66 -34 39.32 -34 40 C-45.63826089 42.01469054 -57.21470401 42.58500103 -69 43 C-62.12097955 34.92462817 -53.26979528 33.08229575 -43.1875 31.8125 C-40.97255904 31.50721488 -38.75771461 31.20122853 -36.54296875 30.89453125 C-34.92720947 30.67724365 -34.92720947 30.67724365 -33.27880859 30.45556641 C-24.5671643 30.01608819 -24.5671643 30.01608819 -17 27 C-18.68802734 27.10828125 -18.68802734 27.10828125 -20.41015625 27.21875 C-30.29169105 27.82539708 -40.0994528 28.13142319 -50 28 C-49 25 -49 25 -47.0234375 23.75390625 C-38.86030553 20.08170086 -29.06693593 16 -20 16 C-20 15.34 -20 14.68 -20 14 C-21.65 14 -23.3 14 -25 14 C-25 12.68 -25 11.36 -25 10 C-23.948125 9.61908203 -23.948125 9.61908203 -22.875 9.23046875 C-20.9040588 8.51546698 -18.93405158 7.79788694 -16.96484375 7.078125 C-15.18981918 6.43266152 -13.41202021 5.79464297 -11.62890625 5.171875 C-7.8918926 3.84378697 -3.71495727 0 0 0 Z " fill="#309A5F" transform="translate(107,6)"/>
<path d="M0 0 C9.9 0 19.8 0 30 0 C30 0.66 30 1.32 30 2 C28.35 2 26.7 2 25 2 C25 2.99 25 3.98 25 5 C21.7 5.33 18.4 5.66 15 6 C15 14.91 15 23.82 15 33 C19.29 33 23.58 33 28 33 C28 33.66 28 34.32 28 35 C28.93972656 34.45859375 28.93972656 34.45859375 29.8984375 33.90625 C30.71570313 33.4421875 31.53296875 32.978125 32.375 32.5 C33.18710937 32.0359375 33.99921875 31.571875 34.8359375 31.09375 C37 30 37 30 39 30 C37.69425831 32.91280837 36.2925792 34.80294493 34 37 C33.34 37.99 32.68 38.98 32 40 C28.875 40.6875 28.875 40.6875 26 41 C26 40.34 26 39.68 26 39 C22.04 39 18.08 39 14 39 C14 50.22 14 61.44 14 73 C9.38 73 4.76 73 0 73 C0 48.91 0 24.82 0 0 Z " fill="#135EA5" transform="translate(232,32)"/>
<path d="M0 0 C1.62463842 -0.05395478 3.24978541 -0.09277195 4.875 -0.125 C6.23238281 -0.15980469 6.23238281 -0.15980469 7.6171875 -0.1953125 C10 0 10 0 12 2 C12.18765773 4.40926234 12.25200981 6.70248397 12.22705078 9.11181641 C12.22734283 9.84362625 12.22763489 10.5754361 12.22793579 11.329422 C12.22654001 13.75358854 12.2109674 16.17744951 12.1953125 18.6015625 C12.19158325 20.28022087 12.18873586 21.95888141 12.18673706 23.63754272 C12.17909369 28.05991607 12.15943922 32.48215845 12.1373291 36.90447998 C12.11688579 41.41546863 12.10773859 45.9264784 12.09765625 50.4375 C12.07619392 59.29173352 12.04100611 68.14583539 12 77 C6.72 77 1.44 77 -4 77 C-4.09052961 67.99404456 -4.16384725 58.98839354 -4.20724869 49.98208523 C-4.22808392 45.79965181 -4.25632644 41.61754704 -4.30175781 37.43530273 C-4.3453618 33.39579623 -4.36916766 29.35660495 -4.37950897 25.31688118 C-4.38687437 23.77914534 -4.40125734 22.24142588 -4.42292023 20.703825 C-4.62376164 5.85169834 -4.62376164 5.85169834 0 0 Z " fill="#1B63A8" transform="translate(269,70)"/>
<path d="M0 0 C0.33 0 0.66 0 1 0 C1 1.65 1 3.3 1 5 C1.99 4.67 2.98 4.34 4 4 C4.02505615 5.18029785 4.0501123 6.3605957 4.07592773 7.57666016 C4.17036506 11.97129475 4.270496 16.36578464 4.37231445 20.76025391 C4.41552627 22.65930792 4.4572106 24.55839734 4.49731445 26.45751953 C4.5553515 29.19314223 4.61894827 31.92858894 4.68359375 34.6640625 C4.70030624 35.50804596 4.71701874 36.35202942 4.73423767 37.22158813 C4.84215035 41.55198975 4.97848616 45.76878431 6 50 C7.9001177 51.24174796 7.9001177 51.24174796 10 52 C10.66 52.99 11.32 53.98 12 55 C14.88595946 55.58481121 14.88595946 55.58481121 18.125 55.6875 C19.22070312 55.75324219 20.31640625 55.81898437 21.4453125 55.88671875 C22.28835937 55.92410156 23.13140625 55.96148437 24 56 C23.505 56.99 23.505 56.99 23 58 C23.5775 57.71125 24.155 57.4225 24.75 57.125 C26.83333333 56.08333333 28.91666667 55.04166667 31 54 C30.67 55.98 30.34 57.96 30 60 C26.18764896 60.08809201 22.37556447 60.1407549 18.5625 60.1875 C17.49322266 60.21263672 16.42394531 60.23777344 15.32226562 60.26367188 C8.90673027 60.32253 2.76293895 60.12940987 -3 57 C-4.5625 54.3125 -4.5625 54.3125 -5 52 C-5.66 52 -6.32 52 -7 52 C-7 51.01 -7 50.02 -7 49 C-7.66 49 -8.32 49 -9 49 C-9 33.82 -9 18.64 -9 3 C-8.67 3 -8.34 3 -8 3 C-8 4.98 -8 6.96 -8 9 C-4.79671105 6.86447403 -3.87891527 5.26767874 -2 2 C-1.34 1.34 -0.68 0.68 0 0 Z " fill="#135EA4" transform="translate(118,44)"/>
<path d="M0 0 C0.02689216 1.47906892 0.04634621 2.95827483 0.0625 4.4375 C0.07410156 5.26121094 0.08570312 6.08492187 0.09765625 6.93359375 C0 9 0 9 -1 10 C-6.18548472 10.36277054 -11.34372829 10.00307396 -16.5 9.4375 C-21.78881903 8.89428321 -26.74831455 9.25952374 -32 10 C-32 10.66 -32 11.32 -32 12 C-43.63826089 14.01469054 -55.21470401 14.58500103 -67 15 C-61.02201469 7.98236507 -53.19628379 5.27855895 -44.3125 4.25 C-43.41909912 4.13277588 -42.52569824 4.01555176 -41.60522461 3.89477539 C-33.85496362 2.94544759 -26.08836526 2.54526967 -18.28442383 2.37792969 C-11.95581398 2.21072109 -6.2042309 -0.36495476 0 0 Z " fill="#18914B" transform="translate(105,34)"/>
<path d="M0 0 C11 0 11 0 16 2 C19.52503719 7.28755578 18.59395472 13.86246786 18 20 C16.95385706 23.6553465 16.44598179 23.8543887 13 26 C8.71 26 4.42 26 0 26 C0 17.42 0 8.84 0 0 Z " fill="#FAFDFB" transform="translate(247,39)"/>
<path d="M0 0 C1.65 0 3.3 0 5 0 C6.97610386 2.04424538 8 3.1176825 8 6 C7.01 6 6.02 6 5 6 C5 5.34 5 4.68 5 4 C4.34 4 3.68 4 3 4 C3 26.44 3 48.88 3 72 C4.485 71.505 4.485 71.505 6 71 C6.03758423 69.53191895 6.03758423 69.53191895 6.07592773 68.03417969 C6.17023983 64.39619296 6.27040203 60.75838657 6.37231445 57.12060547 C6.41557338 55.54740626 6.45725474 53.97416283 6.49731445 52.40087891 C6.55523662 50.13690885 6.61886714 47.87315949 6.68359375 45.609375 C6.70030624 44.90818542 6.71701874 44.20699585 6.73423767 43.48455811 C6.83351022 40.19766179 7.00812672 37.14857995 8 34 C8.99 34.33 9.98 34.66 11 35 C10.34 35 9.68 35 9 35 C9 48.2 9 61.4 9 75 C6.03 75 3.06 75 0 75 C0 50.25 0 25.5 0 0 Z " fill="#497CAB" transform="translate(164,31)"/>
<path d="M0 0 C0.33 11.22 0.66 22.44 1 34 C1.99 33.34 2.98 32.68 4 32 C2.125 35.875 2.125 35.875 1 37 C0.90180448 38.4415579 0.8720166 39.8878659 0.87060547 41.33276367 C0.86587723 42.71506416 0.86587723 42.71506416 0.86105347 44.12528992 C0.8630777 45.12937393 0.86510193 46.13345795 0.8671875 47.16796875 C0.86623077 48.19553787 0.86527405 49.22310699 0.86428833 50.28181458 C0.86360607 52.46334901 0.86546354 54.64488545 0.86962891 56.82641602 C0.87494936 60.15580871 0.86969959 63.48506481 0.86328125 66.81445312 C0.86394256 68.93229196 0.86522481 71.05013072 0.8671875 73.16796875 C0.86516327 74.16193161 0.86313904 75.15589447 0.86105347 76.17997742 C0.87692781 80.90021185 1.01753108 85.35839533 2 90 C1.67 90 1.34 90 1 90 C0.505 95.94 0.505 95.94 0 102 C-1.0621875 101.98839844 -2.124375 101.97679688 -3.21875 101.96484375 C-11.75866312 101.78420061 -11.75866312 101.78420061 -20.25 102.5 C-25.5031598 103.20042131 -30.70859197 103.07937112 -36 103 C-34.6813358 99.97888427 -33.40925681 98.24690703 -30.77734375 96.2734375 C-30.15666016 95.7990625 -29.53597656 95.3246875 -28.89648438 94.8359375 C-28.25001953 94.35382813 -27.60355469 93.87171875 -26.9375 93.375 C-22.33688834 90.25140896 -22.33688834 90.25140896 -19 86 C-18.77377919 84.29636178 -18.59111527 82.58671299 -18.4375 80.875 C-18.35371094 79.96492188 -18.26992187 79.05484375 -18.18359375 78.1171875 C-18.09271484 77.06917969 -18.09271484 77.06917969 -18 76 C-17.34 76 -16.68 76 -16 76 C-15.08683048 88.34469906 -15.08683048 88.34469906 -17.23046875 92.23046875 C-19.611262 94.611262 -21.81392294 95.93797431 -25 97 C-25 97.66 -25 98.32 -25 99 C-17.41 99.33 -9.82 99.66 -2 100 C-2 67.99 -2 35.98 -2 3 C-3.32 3.33 -4.64 3.66 -6 4 C-2.25 0 -2.25 0 0 0 Z " fill="#2A8F58" transform="translate(107,6)"/>
<path d="M0 0 C1.65 0 3.3 0 5 0 C2.31158141 2.25245881 0.35358125 3.88213958 -3 5 C-3.33 5.66 -3.66 6.32 -4 7 C-3.20416504 6.93941406 -2.40833008 6.87882812 -1.58837891 6.81640625 C2.0658014 6.54041878 5.72038526 6.27017132 9.375 6 C10.62667969 5.90460937 11.87835938 5.80921875 13.16796875 5.7109375 C20.12751043 5.20081403 27.02144775 4.8533832 34 5 C34 5.33 34 5.66 34 6 C29.18267583 7.79637914 24.58465329 8.6049297 19.5234375 9.26171875 C17.86571165 9.49551599 16.20816456 9.7305836 14.55078125 9.96679688 C11.97220882 10.3296908 9.39362145 10.6850974 6.81103516 11.01831055 C-4.28304956 12.4644847 -12.77128321 14.28304273 -22 21 C-18.79138226 20.86004486 -15.58318712 20.71197743 -12.375 20.5625 C-11.47136719 20.52318359 -10.56773438 20.48386719 -9.63671875 20.44335938 C-5.00777965 20.22373818 -0.56851158 19.81580564 4 19 C6.67810075 18.88803927 9.31732686 18.95374701 12 19 C12 18.34 12 17.68 12 17 C13.77074917 16.97294271 15.54161711 16.95357805 17.3125 16.9375 C18.29863281 16.92589844 19.28476563 16.91429688 20.30078125 16.90234375 C23 17 23 17 26 18 C26 18.66 26 19.32 26 20 C24.99582031 20.17015625 23.99164063 20.3403125 22.95703125 20.515625 C14.9571308 21.91904734 7.36361105 23.63406516 -0.328125 26.328125 C-3 27 -3 27 -7 26 C-3.37 24.68 0.26 23.36 4 22 C2.24236328 22.10828125 2.24236328 22.10828125 0.44921875 22.21875 C-8.0417896 22.72582427 -16.48934288 23.16871347 -25 23 C-24.67 21.35 -24.34 19.7 -24 18 C-23.34 18 -22.68 18 -22 18 C-22 17.01 -22 16.02 -22 15 C-21.40832031 14.87882812 -20.81664062 14.75765625 -20.20703125 14.6328125 C-19.41683594 14.46523438 -18.62664063 14.29765625 -17.8125 14.125 C-16.64654297 13.88136719 -16.64654297 13.88136719 -15.45703125 13.6328125 C-12.98527808 13.0662326 -12.98527808 13.0662326 -10.71875 12 C-7.08557392 10.66365937 -3.52033258 10.29287808 0.3125 9.875 C1.05306641 9.78863281 1.79363281 9.70226563 2.55664062 9.61328125 C4.37038435 9.40265295 6.18510543 9.20047014 8 9 C1.07 8.505 1.07 8.505 -6 8 C-6 6.35 -6 4.7 -6 3 C-5.195625 2.87625 -4.39125 2.7525 -3.5625 2.625 C-2.716875 2.41875 -1.87125 2.2125 -1 2 C-0.67 1.34 -0.34 0.68 0 0 Z " fill="#C0E7D2" transform="translate(61,27)"/>
<path d="M0 0 C-1.33188071 0.60736227 -2.6656095 1.21067185 -4 1.8125 C-5.11375 2.31716797 -5.11375 2.31716797 -6.25 2.83203125 C-9.79402863 4.33723659 -13.38846441 5.66480305 -17 7 C-13.39590461 7.05906119 -9.79193691 7.09394639 -6.1875 7.125 C-4.68026367 7.15013672 -4.68026367 7.15013672 -3.14257812 7.17578125 C5.26475554 7.2298477 13.366179 6.52337649 21.25 3.4375 C26.65883086 1.47334427 32.24787576 1.44800518 37.9375 1.2109375 C40.87337095 1.34557797 40.87337095 1.34557797 42 0 C43.99958364 -0.04080783 46.00045254 -0.04254356 48 0 C48 0.66 48 1.32 48 2 C44.9903623 4.87044582 42.69469589 5.41189894 38.60546875 5.625 C37.56712891 5.69203125 36.52878906 5.7590625 35.45898438 5.828125 C34.37939453 5.88484375 33.29980469 5.9415625 32.1875 6 C25.0849029 6.37720492 19.4112598 6.85000854 13 10 C12.01 10 11.02 10 10 10 C10 10.66 10 11.32 10 12 C9.17592651 12.08302368 9.17592651 12.08302368 8.33520508 12.16772461 C5.82737577 12.42181253 3.31994239 12.67962299 0.8125 12.9375 C-0.05181641 13.02451172 -0.91613281 13.11152344 -1.80664062 13.20117188 C-5.9203025 13.6267231 -9.96211191 14.07203814 -14 15 C-10.55531022 11.83088541 -7.55699832 11.54769058 -3 11 C-4.20398438 10.93941406 -5.40796875 10.87882812 -6.6484375 10.81640625 C-8.22397077 10.73200268 -9.79949096 10.64735459 -11.375 10.5625 C-12.1690625 10.52318359 -12.963125 10.48386719 -13.78125 10.44335938 C-19.7734375 10.11328125 -19.7734375 10.11328125 -22 9 C-21 6 -21 6 -19.17407227 5.00097656 C-18.39604248 4.71706055 -17.6180127 4.43314453 -16.81640625 4.140625 C-15.97142578 3.82996094 -15.12644531 3.51929688 -14.25585938 3.19921875 C-13.36705078 2.88597656 -12.47824219 2.57273438 -11.5625 2.25 C-10.67755859 1.92128906 -9.79261719 1.59257813 -8.88085938 1.25390625 C-2.26726974 -1.13363487 -2.26726974 -1.13363487 0 0 Z " fill="#A7E0BB" transform="translate(49,56)"/>
<path d="M0 0 C-2.90600261 1.25664978 -4.79604584 2 -8 2 C-8 2.66 -8 3.32 -8 4 C-6.62328125 3.7834375 -6.62328125 3.7834375 -5.21875 3.5625 C1.25275333 2.58361714 7.45390849 1.73815634 14 2 C12 5 12 5 8.5234375 5.73046875 C7.14219953 5.89648293 5.75919878 6.04831396 4.375 6.1875 C3.66859375 6.26935547 2.9621875 6.35121094 2.234375 6.43554688 C0.4909317 6.63580725 -1.25440086 6.81949401 -3 7 C-3 7.66 -3 8.32 -3 9 C-3.75925781 9.18175781 -4.51851562 9.36351562 -5.30078125 9.55078125 C-6.29464844 9.80214844 -7.28851563 10.05351562 -8.3125 10.3125 C-9.79169922 10.67794922 -9.79169922 10.67794922 -11.30078125 11.05078125 C-14.32985925 11.89737927 -14.32985925 11.89737927 -17 15 C-7.43 15.33 2.14 15.66 12 16 C11 18 11 18 9.07421875 18.66796875 C8.28660156 18.83941406 7.49898437 19.01085937 6.6875 19.1875 C5.51767578 19.45626953 5.51767578 19.45626953 4.32421875 19.73046875 C1.90795241 20.01067443 0.29757048 19.74132137 -2 19 C-1.505 18.505 -1.505 18.505 -1 18 C-2.68802734 18.10828125 -2.68802734 18.10828125 -4.41015625 18.21875 C-14.29169105 18.82539708 -24.0994528 19.13142319 -34 19 C-33 16 -33 16 -31.0234375 14.75390625 C-22.86030553 11.08170086 -13.06693593 7 -4 7 C-4 6.34 -4 5.68 -4 5 C-5.65 5 -7.3 5 -9 5 C-9 3.68 -9 2.36 -9 1 C-5.57367167 -0.61798838 -3.61944899 -1.34053666 0 0 Z " fill="#48A16F" transform="translate(91,15)"/>
<path d="M0 0 C-0.639375 0.103125 -1.27875 0.20625 -1.9375 0.3125 C-2.618125 0.539375 -3.29875 0.76625 -4 1 C-4.33 1.99 -4.66 2.98 -5 4 C-6.32 3.67 -7.64 3.34 -9 3 C-9.33 3.99 -9.66 4.98 -10 6 C-8.71738281 5.84402344 -7.43476563 5.68804687 -6.11328125 5.52734375 C-1.1405737 4.97417257 3.81512798 4.7525252 8.8125 4.5625 C21.22698399 4.89436115 21.22698399 4.89436115 32 1 C34.18639453 0.92741054 36.37500389 0.91626217 38.5625 0.9375 C40.35880859 0.95103516 40.35880859 0.95103516 42.19140625 0.96484375 C43.11824219 0.97644531 44.04507813 0.98804687 45 1 C45 1.66 45 2.32 45 3 C50.28 3.33 55.56 3.66 61 4 C61 4.66 61 5.32 61 6 C56.40275035 6.17348112 52.43076434 5.9397401 47.9375 4.9375 C40.88203028 3.51646877 34.11264392 4.28969548 27 5 C27 5.66 27 6.32 27 7 C23.5583833 8.02804253 20.30474291 8.19824128 16.72265625 8.31640625 C15.48580078 8.35830078 14.24894531 8.40019531 12.97460938 8.44335938 C11.03811523 8.50233398 11.03811523 8.50233398 9.0625 8.5625 C7.80630859 8.60568359 6.55011719 8.64886719 5.25585938 8.69335938 C-2.83221256 8.95642005 -10.90793329 9.05378207 -19 9 C-19 8.34 -19 7.68 -19 7 C-15.08155789 3.39503325 -5.10125306 -2.55062653 0 0 Z " fill="#3E9866" transform="translate(28,76)"/>
<path d="M0 0 C0 3.3 0 6.6 0 10 C-21.53191489 11.19148936 -21.53191489 11.19148936 -32 11 C-30.6875 8.625 -30.6875 8.625 -28 6 C-24.37511445 4.96208313 -20.74133848 4.4321891 -17 4 C-17 3.34 -17 2.68 -17 2 C-11.19233704 0.4943096 -6.0018137 -0.21824777 0 0 Z " fill="#16904A" transform="translate(105,20)"/>
<path d="M0 0 C3 1 3 1 5 4 C5.25760279 6.69452521 5.08900053 9.28548375 5 12 C2.36 12 -0.28 12 -3 12 C-3.474375 11.030625 -3.94875 10.06125 -4.4375 9.0625 C-5.70193947 6.19522563 -5.70193947 6.19522563 -7 5 C-9.63575543 4.89975874 -12.23954245 4.86124979 -14.875 4.875 C-15.60847656 4.87113281 -16.34195313 4.86726563 -17.09765625 4.86328125 C-20.32433238 4.86915862 -22.91843421 4.9728114 -26 6 C-26.9465414 8.83962421 -27.14994224 10.70406529 -27.20532227 13.6550293 C-27.22526749 14.59577805 -27.24521271 15.53652679 -27.26576233 16.50578308 C-27.28247482 17.51836685 -27.29918732 18.53095062 -27.31640625 19.57421875 C-27.3475779 21.13267265 -27.3475779 21.13267265 -27.37937927 22.72261047 C-27.44480656 26.04417253 -27.50372821 29.36581416 -27.5625 32.6875 C-27.60569169 34.9381593 -27.64930619 37.18881052 -27.69335938 39.43945312 C-27.80048098 44.9595511 -27.90226016 50.47972837 -28 56 C-29.69471155 53.03694508 -30.25443914 50.89739598 -30.2746582 47.49438477 C-30.28895622 46.16764488 -30.28895622 46.16764488 -30.30354309 44.81410217 C-30.30263168 43.86611252 -30.30172028 42.91812286 -30.30078125 41.94140625 C-30.30506638 40.96010239 -30.3093515 39.97879852 -30.31376648 38.96775818 C-30.31950486 36.89412202 -30.32001367 34.82046573 -30.31567383 32.74682617 C-30.31251506 29.5776122 -30.33597534 26.40933289 -30.36132812 23.24023438 C-30.36360131 21.22395951 -30.36430453 19.20768214 -30.36328125 17.19140625 C-30.372491 16.24544083 -30.38170074 15.2994754 -30.39118958 14.32484436 C-30.32967323 5.55834195 -30.32967323 5.55834195 -27 2 C-24.79516602 1.41650391 -24.79516602 1.41650391 -22.25390625 1.4765625 C-21.33416016 1.48816406 -20.41441406 1.49976563 -19.46679688 1.51171875 C-18.50837891 1.54910156 -17.54996094 1.58648437 -16.5625 1.625 C-15.13067383 1.64626953 -15.13067383 1.64626953 -13.66992188 1.66796875 C-9.62086851 1.75297337 -5.91159692 1.88562024 -2 3 C-1.896875 3.639375 -1.79375 4.27875 -1.6875 4.9375 C-1.3471875 5.9584375 -1.3471875 5.9584375 -1 7 C-0.01 7.33 0.98 7.66 2 8 C2 6.02 2 4.04 2 2 C1.34 2 0.68 2 0 2 C0 1.34 0 0.68 0 0 Z " fill="#3A78B1" transform="translate(152,36)"/>
<path d="M0 0 C37 0 37 0 40 2 C20.695 1.505 20.695 1.505 1 1 C1 25.09 1 49.18 1 74 C5.62 74 10.24 74 15 74 C15 62.78 15 51.56 15 40 C18.96 40 22.92 40 27 40 C27 40.66 27 41.32 27 42 C23.7 42 20.4 42 17 42 C17 52.89 17 63.78 17 75 C11.39 75 5.78 75 0 75 C0 50.25 0 25.5 0 0 Z " fill="#5D8BB8" transform="translate(231,31)"/>
<path d="M0 0 C1.65 0.66 3.3 1.32 5 2 C5.22151549 3.79008467 5.42682213 5.58218162 5.625 7.375 C5.79902344 8.87160156 5.79902344 8.87160156 5.9765625 10.3984375 C5.98429687 11.25695312 5.99203125 12.11546875 6 13 C3.6031335 15.3968665 2.92971686 15.28281133 -0.3515625 15.4140625 C-1.20234375 15.45273438 -2.053125 15.49140625 -2.9296875 15.53125 C-3.81914062 15.5621875 -4.70859375 15.593125 -5.625 15.625 C-6.97078125 15.68300781 -6.97078125 15.68300781 -8.34375 15.7421875 C-10.5622927 15.83659357 -12.78082403 15.92216748 -15 16 C-14.34 16.61875 -13.68 17.2375 -13 17.875 C-11 20 -11 20 -11 22 C-8.45805839 21.85811015 -5.91652007 21.71160845 -3.375 21.5625 C-2.66214844 21.52318359 -1.94929688 21.48386719 -1.21484375 21.44335938 C2.91803682 21.19690319 6.92269024 20.76529947 11 20 C7.0150327 23.9849673 1.97349093 23.25265859 -3.3125 23.3125 C-4.15490234 23.34150391 -4.99730469 23.37050781 -5.86523438 23.40039062 C-11.4065965 23.45671409 -14.66298762 22.79067023 -19 19 C-21.23302722 14.90611677 -22.42490933 11.67400265 -22 7 C-19.36 7 -16.72 7 -14 7 C-13.690625 7.804375 -13.38125 8.60875 -13.0625 9.4375 C-12.23664655 11.89080405 -12.23664655 11.89080405 -11 13 C-9.35769636 13.1245486 -7.70947724 13.17568524 -6.0625 13.1875 C-5.16660156 13.20167969 -4.27070313 13.21585938 -3.34765625 13.23046875 C-0.80885466 13.23194769 -0.80885466 13.23194769 1 11 C1.02207488 8.32186601 1.02207488 8.32186601 0.625 5.375 C0.51414062 4.37210937 0.40328125 3.36921875 0.2890625 2.3359375 C0.19367188 1.56507812 0.09828125 0.79421875 0 0 Z " fill="#1F619B" transform="translate(310,83)"/>
<path d="M0 0 C1.485 0.495 1.485 0.495 3 1 C3.19406478 2.64507218 3.38007935 4.29109594 3.5625 5.9375 C3.71912109 7.31228516 3.71912109 7.31228516 3.87890625 8.71484375 C3.93884766 9.84599609 3.93884766 9.84599609 4 11 C3 12 3 12 0.71484375 12.09765625 C-0.65994141 12.08025391 -0.65994141 12.08025391 -2.0625 12.0625 C-2.98160156 12.05347656 -3.90070313 12.04445313 -4.84765625 12.03515625 C-5.55792969 12.02355469 -6.26820313 12.01195312 -7 12 C-7.433125 11.030625 -7.86625 10.06125 -8.3125 9.0625 C-9.7014861 5.72268235 -9.7014861 5.72268235 -13 5 C-18.44232168 4.47003609 -22.53077792 4.50842025 -27 8 C-28.21954667 8.99856319 -28.21954667 8.99856319 -28.12025452 10.98048401 C-28.11803391 11.84874313 -28.11581329 12.71700226 -28.11352539 13.61157227 C-28.11344986 14.59251358 -28.11337433 15.5734549 -28.11329651 16.5841217 C-28.10813522 17.6507756 -28.10297394 18.7174295 -28.09765625 19.81640625 C-28.0962413 20.9025975 -28.09482635 21.98878876 -28.09336853 23.1078949 C-28.08775048 26.59279075 -28.07519492 30.07762342 -28.0625 33.5625 C-28.05748733 35.91861887 -28.05292402 38.27473874 -28.04882812 40.63085938 C-28.03777519 46.42059464 -28.02101951 52.21029281 -28 58 C-28.99 57.67 -29.98 57.34 -31 57 C-31.126851 50.11340009 -31.21437266 43.22710177 -31.2746582 36.33959961 C-31.29979125 33.99703716 -31.33390308 31.65455305 -31.37719727 29.31225586 C-31.43789928 25.94365101 -31.46622251 22.57608351 -31.48828125 19.20703125 C-31.51408768 18.16102249 -31.5398941 17.11501373 -31.56648254 16.03730774 C-31.56927538 8.7852723 -31.56927538 8.7852723 -28.70996094 4.84106445 C-25.14354376 2.41814987 -22.10804645 2.26031953 -17.9375 2.375 C-16.87692383 2.34599609 -16.87692383 2.34599609 -15.79492188 2.31640625 C-11.97883717 2.35223803 -10.31220527 2.70587234 -7.50390625 5.3515625 C-6 8 -6 8 -6 11 C-3.36 11 -0.72 11 2 11 C1.855625 9.741875 1.71125 8.48375 1.5625 7.1875 C1.48128906 6.47980469 1.40007812 5.77210937 1.31640625 5.04296875 C1.02829265 2.80603607 1.02829265 2.80603607 0 0 Z " fill="#D0E5F5" transform="translate(155,37)"/>
<path d="M0 0 C0.66 0.33 1.32 0.66 2 1 C1.67 1.66 1.34 2.32 1 3 C10.9 2.34 20.8 1.68 31 1 C28.82552683 5.34894633 21.3670844 6.4654937 17 8 C13.72947781 9.04338005 10.44813511 10.04055058 7.16015625 11.02734375 C-1.59063808 13.30438388 -1.59063808 13.30438388 -9 18 C-8.67 16.35 -8.34 14.7 -8 13 C-4.17679443 11.57741188 -1.08718695 10.75957724 3 11 C3 10.34 3 9.68 3 9 C3.66 8.67 4.32 8.34 5 8 C5 7.34 5 6.68 5 6 C2.69 5.67 0.38 5.34 -2 5 C-2 3.68 -2 2.36 -2 1 C-1.34 0.67 -0.68 0.34 0 0 Z " fill="#E0F8EB" transform="translate(35,47)"/>
<path d="M0 0 C0.33 0 0.66 0 1 0 C1 21.12 1 42.24 1 64 C0.01 64 -0.98 64 -2 64 C-3.27462325 62.56196351 -4.54283424 61.11529986 -5.7265625 59.6015625 C-7.33658514 57.5766874 -9.13838858 55.79266285 -11 54 C-9.02 54.33 -7.04 54.66 -5 55 C-4.67 56.65 -4.34 58.3 -4 60 C-3.01 60 -2.02 60 -1 60 C-1.00222061 59.26306412 -1.00444122 58.52612823 -1.00672913 57.76686096 C-1.02673203 50.83587231 -1.04197413 43.90488796 -1.05181217 36.97387791 C-1.05703995 33.41022578 -1.06413569 29.84659743 -1.07543945 26.28295898 C-1.08834176 22.18993903 -1.09322906 18.0969442 -1.09765625 14.00390625 C-1.10281754 12.71851456 -1.10797882 11.43312286 -1.11329651 10.10877991 C-1.11340981 8.33705666 -1.11340981 8.33705666 -1.11352539 6.52954102 C-1.115746 5.48363297 -1.11796661 4.43772491 -1.12025452 3.36012268 C-1 1 -1 1 0 0 Z " fill="#C5DCEE" transform="translate(214,8)"/>
<path d="M0 0 C0.33 0 0.66 0 1 0 C1 24.09 1 48.18 1 73 C-3.62 73 -8.24 73 -13 73 C-13 56.83 -13 40.66 -13 24 C-12.67 24 -12.34 24 -12 24 C-11.67 39.51 -11.34 55.02 -11 71 C-7.37 71 -3.74 71 0 71 C0 47.57 0 24.14 0 0 Z " fill="#175999" transform="translate(279,73)"/>
<path d="M0 0 C0.66 0.33 1.32 0.66 2 1 C3.96385993 6.89157979 4.00199199 14.26161468 1.8125 20.125 C-0.25957123 23.41173367 -1.44099223 23.78244471 -5 25 C-5.88693303 27.04105639 -5.88693303 27.04105639 -6 29 C-4.35 29 -2.7 29 -1 29 C-1 29.33 -1 29.66 -1 30 C-3.97 30 -6.94 30 -10 30 C-10.33 31.32 -10.66 32.64 -11 34 C-13.0625 36.25 -13.0625 36.25 -15 38 C-15 37.34 -15 36.68 -15 36 C-16.32 35.34 -17.64 34.68 -19 34 C-18 32 -18 32 -16.0625 31.125 C-13.57998766 29.77090236 -13.03128603 28.57821507 -12 26 C-10.35 26 -8.7 26 -7 26 C-6.896875 25.401875 -6.79375 24.80375 -6.6875 24.1875 C-5.89363064 21.66155205 -5.04427591 20.65114593 -3 19 C-2.01 18.67 -1.02 18.34 0 18 C0 12.06 0 6.12 0 0 Z " fill="#4A81B7" transform="translate(279,40)"/>
<path d="M0 0 C1.17426264 2.34852528 1.11508173 3.73774065 1.09765625 6.3515625 C1.09443359 7.20234375 1.09121094 8.053125 1.08789062 8.9296875 C1.07951172 9.81914062 1.07113281 10.70859375 1.0625 11.625 C1.05798828 12.5221875 1.05347656 13.419375 1.04882812 14.34375 C1.03702591 16.56256648 1.02056155 18.78125018 1 21 C0.67 21 0.34 21 0 21 C0 17.7 0 14.4 0 11 C-0.66 10.67 -1.32 10.34 -2 10 C-1.67 9.67 -1.34 9.34 -1 9 C-11.395 9.495 -11.395 9.495 -22 10 C-22 9.34 -22 8.68 -22 8 C-19.36 7.34 -16.72 6.68 -14 6 C-14 5.34 -14 4.68 -14 4 C-11.17991324 2.11994216 -9.65676336 1.54324907 -6.4375 0.875 C-5.25994141 0.62363281 -5.25994141 0.62363281 -4.05859375 0.3671875 C-2 0 -2 0 0 0 Z " fill="#1E8E50" transform="translate(105,9)"/>
<path d="M0 0 C1.77074917 -0.02705729 3.54161711 -0.04642195 5.3125 -0.0625 C6.29863281 -0.07410156 7.28476563 -0.08570313 8.30078125 -0.09765625 C11 0 11 0 14 1 C14 1.66 14 2.32 14 3 C12.99582031 3.17015625 11.99164063 3.3403125 10.95703125 3.515625 C2.9571308 4.91904734 -4.63638895 6.63406516 -12.328125 9.328125 C-15 10 -15 10 -19 9 C-15.37 7.68 -11.74 6.36 -8 5 C-9.17175781 5.0721875 -10.34351563 5.144375 -11.55078125 5.21875 C-20.0417896 5.72582427 -28.48934288 6.16871347 -37 6 C-36.34 4.68 -35.68 3.36 -35 2 C-34.34 2.33 -33.68 2.66 -33 3 C-33.33 3.33 -33.66 3.66 -34 4 C-30.79138226 3.86004486 -27.58318712 3.71197743 -24.375 3.5625 C-23.47136719 3.52318359 -22.56773438 3.48386719 -21.63671875 3.44335938 C-17.00777965 3.22373818 -12.56851158 2.81580564 -8 2 C-5.32189925 1.88803927 -2.68267314 1.95374701 0 2 C0 1.34 0 0.68 0 0 Z " fill="#8BCCA8" transform="translate(73,44)"/>
<path d="M0 0 C-0.99 1.485 -0.99 1.485 -2 3 C0.9615696 4.4807848 3.83506295 4.35314037 7.125 4.5625 C8.40632813 4.64628906 9.68765625 4.73007812 11.0078125 4.81640625 C12.48894531 4.90728516 12.48894531 4.90728516 14 5 C14 5.33 14 5.66 14 6 C2.36173911 8.01469054 -9.21470401 8.58500103 -21 9 C-14.88725112 2.55683226 -8.95228205 -0.81384382 0 0 Z " fill="#1D8C4E" transform="translate(59,40)"/>
<path d="M0 0 C0.33 11.22 0.66 22.44 1 34 C1.99 33.34 2.98 32.68 4 32 C2.125 35.875 2.125 35.875 1 37 C0.90180448 38.4415579 0.8720166 39.8878659 0.87060547 41.33276367 C0.86745331 42.25429733 0.86430115 43.17583099 0.86105347 44.12528992 C0.8630777 45.12937393 0.86510193 46.13345795 0.8671875 47.16796875 C0.86575241 48.70932243 0.86575241 48.70932243 0.86428833 50.28181458 C0.86360607 52.46334901 0.86546354 54.64488545 0.86962891 56.82641602 C0.87494936 60.15580871 0.86969959 63.48506481 0.86328125 66.81445312 C0.86394256 68.93229196 0.86522481 71.05013072 0.8671875 73.16796875 C0.86516327 74.16193161 0.86313904 75.15589447 0.86105347 76.17997742 C0.87692781 80.90021185 1.01753108 85.35839533 2 90 C1.67 90 1.34 90 1 90 C0.67 93.96 0.34 97.92 0 102 C-1.98 102 -3.96 102 -6 102 C-6 101.67 -6 101.34 -6 101 C-4.35 101 -2.7 101 -1 101 C-1.33 68.66 -1.66 36.32 -2 3 C-3.32 3.33 -4.64 3.66 -6 4 C-2.25 0 -2.25 0 0 0 Z " fill="#319076" transform="translate(107,6)"/>
<path d="M0 0 C-0.763125 0.2475 -1.52625 0.495 -2.3125 0.75 C-6.17627629 2.54710525 -7.41089016 4.61941851 -9.05615234 8.47509766 C-10.32860564 13.2272137 -10.35602133 17.74823453 -10.4140625 22.6484375 C-10.43342865 23.66096588 -10.4527948 24.67349426 -10.4727478 25.71670532 C-10.53230723 28.93605242 -10.57883448 32.15543574 -10.625 35.375 C-10.66320151 37.56381728 -10.7022545 39.75261988 -10.7421875 41.94140625 C-10.83798923 47.29414005 -10.92310533 52.646963 -11 58 C-13.08866587 54.8670012 -13.26384939 54.05496475 -13.33813477 50.47192383 C-13.36057755 49.55699661 -13.38302032 48.6420694 -13.40614319 47.69941711 C-13.41778 46.71192978 -13.42941681 45.72444244 -13.44140625 44.70703125 C-13.45517807 43.68703537 -13.46894989 42.66703949 -13.48313904 41.61613464 C-13.50642518 39.45500112 -13.52368338 37.29379557 -13.53540039 35.13256836 C-13.56226261 31.84158317 -13.63714388 28.55384384 -13.71289062 25.26367188 C-13.72955409 23.16147992 -13.7433184 21.05926259 -13.75390625 18.95703125 C-13.78376114 17.97966507 -13.81361603 17.00229889 -13.84437561 15.99531555 C-13.80288471 9.47983392 -12.32044418 6.16329934 -7.79771423 1.46244812 C-4.89498087 -0.89893773 -3.56633086 -1.18877695 0 0 Z " fill="#1B7487" transform="translate(120,35)"/>
<path d="M0 0 C7.99976044 -0.20483028 15.26134446 -0.13480153 23 2 C23 2.99 23 3.98 23 5 C23.66 5 24.32 5 25 5 C25 6.98 25 8.96 25 11 C23.68 10.67 22.36 10.34 21 10 C21 8.68 21 7.36 21 6 C20.02389771 6.01571045 20.02389771 6.01571045 19.02807617 6.03173828 C16.0812567 6.07329835 13.13449889 6.09932608 10.1875 6.125 C8.65125977 6.15013672 8.65125977 6.15013672 7.08398438 6.17578125 C6.10107422 6.18222656 5.11816406 6.18867187 4.10546875 6.1953125 C3.19949951 6.20578613 2.29353027 6.21625977 1.36010742 6.22705078 C-1 6 -1 6 -4 4 C-1.36 3.34 1.28 2.68 4 2 C2.68 1.34 1.36 0.68 0 0 Z " fill="#135EA2" transform="translate(129,33)"/>
<path d="M0 0 C11 0 11 0 16 2 C18.45391569 5.68087353 18.22802759 8.44355588 18.125 12.6875 C18.11597656 13.38939453 18.10695313 14.09128906 18.09765625 14.81445312 C18.07413704 16.54311525 18.03826713 18.27160145 18 20 C17.67 20 17.34 20 17 20 C16.93941406 19.02417969 16.87882812 18.04835938 16.81640625 17.04296875 C16.73261719 15.77066406 16.64882813 14.49835937 16.5625 13.1875 C16.48128906 11.92292969 16.40007812 10.65835938 16.31640625 9.35546875 C16.12815453 6.00818107 16.12815453 6.00818107 15 3 C14.01 3.33 13.02 3.66 12 4 C12 3.34 12 2.68 12 2 C8.7 2 5.4 2 2 2 C2 9.26 2 16.52 2 24 C5.96 24 9.92 24 14 24 C13.67 24.66 13.34 25.32 13 26 C8.71 26 4.42 26 0 26 C0 17.42 0 8.84 0 0 Z " fill="#96BCDB" transform="translate(247,39)"/>
<path d="M0 0 C0.71994141 -0.01224609 1.43988281 -0.02449219 2.18164062 -0.03710938 C5.9801247 -0.04769011 7.70116518 0.02994345 10.9375 2.1875 C6.3175 2.1875 1.6975 2.1875 -3.0625 2.1875 C-3.0625 2.8475 -3.0625 3.5075 -3.0625 4.1875 C-5.0425 4.1875 -7.0225 4.1875 -9.0625 4.1875 C-9.0625 4.8475 -9.0625 5.5075 -9.0625 6.1875 C-10.7421875 7.4765625 -10.7421875 7.4765625 -12.9375 8.8125 C-13.65679687 9.25851563 -14.37609375 9.70453125 -15.1171875 10.1640625 C-17.0625 11.1875 -17.0625 11.1875 -19.0625 11.1875 C-19.0625 16.4675 -19.0625 21.7475 -19.0625 27.1875 C-21.36305997 23.73666005 -21.33260256 22.31574272 -21.3125 18.25 C-21.31765625 17.20972656 -21.3228125 16.16945313 -21.328125 15.09765625 C-20.9176472 10.60050979 -19.3113454 8.18643422 -16.0625 5.1875 C-15.423125 4.48625 -14.78375 3.785 -14.125 3.0625 C-10.08805895 -0.60744641 -5.21930471 0.00469784 0 0 Z " fill="#356CA3" transform="translate(308.0625,30.8125)"/>
<path d="M0 0 C1.4540625 0.0309375 1.4540625 0.0309375 2.9375 0.0625 C2.9375 0.7225 2.9375 1.3825 2.9375 2.0625 C-0.0844107 4.94828459 -2.42125851 5.48410398 -6.52734375 5.72265625 C-8.09838867 5.8299707 -8.09838867 5.8299707 -9.70117188 5.93945312 C-10.78978516 6.00068359 -11.87839844 6.06191406 -13 6.125 C-15.15540279 6.25434978 -17.31039264 6.39081994 -19.46484375 6.53515625 C-20.41866943 6.58937744 -21.37249512 6.64359863 -22.35522461 6.69946289 C-25.19610133 7.08041552 -27.45709032 7.89070169 -30.0625 9.0625 C-30.0625 8.4025 -30.0625 7.7425 -30.0625 7.0625 C-30.7225 6.7325 -31.3825 6.4025 -32.0625 6.0625 C-23.50454992 2.95970191 -16.02096745 1.56101669 -6.984375 1.23828125 C-3.55507628 1.03197317 -3.48576747 0.07113811 0 0 Z " fill="#63C389" transform="translate(94.0625,55.9375)"/>
<path d="M0 0 C0.66 0.33 1.32 0.66 2 1 C1.67 1.763125 1.34 2.52625 1 3.3125 C-0.17436686 5.99069135 -0.17436686 5.99069135 0 9 C0.99 9.33 1.98 9.66 3 10 C-4.92 10 -12.84 10 -21 10 C-19.32970614 6.65941227 -15.54528898 6.18683005 -12.1875 5 C-10.74276511 4.48117965 -9.29873132 3.96040208 -7.85546875 3.4375 C-7.17919434 3.19386719 -6.50291992 2.95023438 -5.80615234 2.69921875 C-3.86719635 1.98764849 -3.86719635 1.98764849 -1.61328125 0.75 C-1.08089844 0.5025 -0.54851563 0.255 0 0 Z " fill="#1B8D4F" transform="translate(52,54)"/>
<path d="M0 0 C2.31 0 4.62 0 7 0 C7.33 1.32 7.66 2.64 8 4 C5.69 3.34 3.38 2.68 1 2 C1 26.75 1 51.5 1 77 C0.67 77 0.34 77 0 77 C-0.14473367 69.21195546 -0.2868421 61.42386597 -0.42724609 53.63574219 C-0.47498374 50.99412515 -0.52365245 48.35253008 -0.57275391 45.7109375 C-1.0426223 20.3955791 -1.0426223 20.3955791 -1.09375 9.2734375 C-1.1002356 8.54548981 -1.10672119 7.81754211 -1.11340332 7.0675354 C-1.11788016 2.23576031 -1.11788016 2.23576031 0 0 Z " fill="#E5FAFD" transform="translate(163,29)"/>
<path d="M0 0 C0.33 0 0.66 0 1 0 C1.03738281 0.64066406 1.07476562 1.28132813 1.11328125 1.94140625 C1.44125142 6.25646478 1.79269755 10.04256137 3.625 14 C4.07875 14.99 4.5325 15.98 5 17 C4.67 17.66 4.34 18.32 4 19 C4.99 19.33 5.98 19.66 7 20 C7 20.66 7 21.32 7 22 C7.99 22 8.98 22 10 22 C12 25 12 25 12 28 C12.99 28.33 13.98 28.66 15 29 C15.33 30.98 15.66 32.96 16 35 C14.89973881 33.89973881 13.80022907 32.79872177 12.703125 31.6953125 C11.39015652 30.38836681 10.06481766 29.09384056 8.734375 27.8046875 C7.93515625 27.02351563 7.1359375 26.24234375 6.3125 25.4375 C5.16201172 24.32181641 5.16201172 24.32181641 3.98828125 23.18359375 C0.28979119 19.12179426 -0.30603363 15.95309299 -0.6875 10.5 C-0.77386719 9.3759375 -0.86023438 8.251875 -0.94921875 7.09375 C-0.99280247 4.43849575 -0.81502696 2.50023307 0 0 Z " fill="#306699" transform="translate(289,42)"/>
<path d="M0 0 C3 1 3 1 5 4 C5.25760279 6.69452521 5.08900053 9.28548375 5 12 C2.36 12 -0.28 12 -3 12 C-3.474375 11.030625 -3.94875 10.06125 -4.4375 9.0625 C-5.70193947 6.19522563 -5.70193947 6.19522563 -7 5 C-9.63415718 4.92633789 -12.2417495 4.90773282 -14.875 4.9375 C-15.97521484 4.94426758 -15.97521484 4.94426758 -17.09765625 4.95117188 C-19.06513151 4.96371498 -21.03257086 4.9815937 -23 5 C-23.99 5 -24.98 5 -26 5 C-25.02734375 3.515625 -25.02734375 3.515625 -23 2 C-20.10533495 1.75463989 -17.44798491 1.67247228 -14.5625 1.75 C-13.4168457 1.75773437 -13.4168457 1.75773437 -12.24804688 1.765625 C-8.65130772 1.81571014 -5.48108484 2.03052249 -2 3 C-1.896875 3.639375 -1.79375 4.27875 -1.6875 4.9375 C-1.3471875 5.9584375 -1.3471875 5.9584375 -1 7 C-0.01 7.33 0.98 7.66 2 8 C2 6.02 2 4.04 2 2 C1.34 2 0.68 2 0 2 C0 1.34 0 0.68 0 0 Z " fill="#4D7EAC" transform="translate(152,36)"/>
<path d="M0 0 C1.11375 0.598125 2.2275 1.19625 3.375 1.8125 C4.00148438 2.14894531 4.62796875 2.48539063 5.2734375 2.83203125 C7 4 7 4 9 7 C9.07905064 9.33199388 9.08798769 11.66832622 9 14 C6.69 14 4.38 14 2 14 C1.896875 13.38125 1.79375 12.7625 1.6875 12.125 C1.12474627 9.63473516 1.12474627 9.63473516 -2 8 C-4.21729717 7.7215372 -4.21729717 7.7215372 -6.5625 7.8125 C-7.34753906 7.81894531 -8.13257813 7.82539062 -8.94140625 7.83203125 C-11.06354672 7.87635911 -11.06354672 7.87635911 -13 9 C-12.67 7.68 -12.34 6.36 -12 5 C-2.58997722 4.81548975 -2.58997722 4.81548975 2 6 C2 4.68 2 3.36 2 2 C1.34 2 0.68 2 0 2 C0 1.34 0 0.68 0 0 Z " fill="#3E78AC" transform="translate(319,33)"/>
<path d="M0 0 C4.62 0 9.24 0 14 0 C14 0.66 14 1.32 14 2 C14.66 2 15.32 2 16 2 C16 3.32 16 4.64 16 6 C15.07058594 5.96519531 14.14117187 5.93039063 13.18359375 5.89453125 C3.67748616 5.65718507 3.67748616 5.65718507 -5 9 C-6 6 -6 6 -5 3 C-3.35 2.67 -1.7 2.34 0 2 C0 1.34 0 0.68 0 0 Z " fill="#145D9C" transform="translate(305,33)"/>
<path d="M0 0 C3.96 0 7.92 0 12 0 C12 0.66 12 1.32 12 2 C8.7 2 5.4 2 2 2 C2 12.89 2 23.78 2 35 C-3.28 35 -8.56 35 -14 35 C-14 34.67 -14 34.34 -14 34 C-9.38 34 -4.76 34 0 34 C0 22.78 0 11.56 0 0 Z " fill="#487EAC" transform="translate(246,71)"/>
<path d="M0 0 C0.33 0 0.66 0 1 0 C1 23.1 1 46.2 1 70 C4.96 70.66 8.92 71.32 13 72 C13 69.69 13 67.38 13 65 C13.33 65 13.66 65 14 65 C14 67.64 14 70.28 14 73 C9.38 73 4.76 73 0 73 C0 48.91 0 24.82 0 0 Z " fill="#26629C" transform="translate(232,32)"/>
<path d="M0 0 C-0.639375 0.103125 -1.27875 0.20625 -1.9375 0.3125 C-2.618125 0.539375 -3.29875 0.76625 -4 1 C-4.33 1.99 -4.66 2.98 -5 4 C-6.32 3.67 -7.64 3.34 -9 3 C-9.33 3.99 -9.66 4.98 -10 6 C2.21 6 14.42 6 27 6 C22.96179102 8.01910449 21.11582516 8.28984472 16.72265625 8.4140625 C15.48580078 8.45273438 14.24894531 8.49140625 12.97460938 8.53125 C11.03811523 8.57765625 11.03811523 8.57765625 9.0625 8.625 C7.17821289 8.68300781 7.17821289 8.68300781 5.25585938 8.7421875 C-2.83084628 8.97597971 -10.91026738 9.04608562 -19 9 C-19 8.34 -19 7.68 -19 7 C-15.08155789 3.39503325 -5.10125306 -2.55062653 0 0 Z " fill="#5AA67D" transform="translate(28,76)"/>
<path d="M0 0 C1.65 0 3.3 0 5 0 C5.33 1.65 5.66 3.3 6 5 C6.99 5 7.98 5 9 5 C9.2475 5.804375 9.495 6.60875 9.75 7.4375 C10.72238859 10.171081 10.72238859 10.171081 13.125 10.8125 C13.74375 10.874375 14.3625 10.93625 15 11 C16.23402862 15.77092956 16.11265112 20.42469446 16.0625 25.3125 C16.05798828 26.14845703 16.05347656 26.98441406 16.04882812 27.84570312 C16.03710548 29.89716649 16.01917203 31.94859273 16 34 C14.02 34.495 14.02 34.495 12 35 C12.15597656 34.30390625 12.31195313 33.6078125 12.47265625 32.890625 C13.77812679 25.7347124 14.52240957 18.44791853 10.4375 12.125 C7.6910179 8.57227136 4.59824281 5.3775777 1.3203125 2.3125 C0.88460938 1.879375 0.44890625 1.44625 0 1 C0 0.67 0 0.34 0 0 Z " fill="#C8E2F0" transform="translate(315,63)"/>
<path d="M0 0 C1.258125 0.17144531 2.51625 0.34289062 3.8125 0.51953125 C7.21116535 0.99575553 10.60630621 1.48970736 14 2 C14.08121924 3.60332791 14.13929134 5.20784026 14.1875 6.8125 C14.23970703 8.15248047 14.23970703 8.15248047 14.29296875 9.51953125 C14 12 14 12 11 15 C11.33 11.04 11.66 7.08 12 3 C1.44 3 -9.12 3 -20 3 C-20 2.34 -20 1.68 -20 1 C-12.89815612 -0.97920239 -7.26554657 -1.01013339 0 0 Z " fill="#C2EAD2" transform="translate(75,80)"/>
<path d="M0 0 C1.65 0.66 3.3 1.32 5 2 C5.22151549 3.79008467 5.42682213 5.58218162 5.625 7.375 C5.79902344 8.87160156 5.79902344 8.87160156 5.9765625 10.3984375 C5.98429687 11.25695312 5.99203125 12.11546875 6 13 C3.02019702 15.97980298 -0.37053964 15.42613549 -4.375 15.5625 C-5.9037888 15.62277942 -7.43244755 15.68647287 -8.9609375 15.75390625 C-9.63946777 15.77783447 -10.31799805 15.8017627 -11.01708984 15.82641602 C-13.09617355 16.00841903 -14.99160723 16.44304839 -17 17 C-17.33 15.68 -17.66 14.36 -18 13 C-16.68 13 -15.36 13 -14 13 C-13.67 12.34 -13.34 11.68 -13 11 C-12.34 11.66 -11.68 12.32 -11 13 C-8.63044614 13.31899515 -8.63044614 13.31899515 -6 13.25 C-4.6696875 13.25773437 -4.6696875 13.25773437 -3.3125 13.265625 C-0.80599761 13.22052862 -0.80599761 13.22052862 1 11 C1.02207488 8.32186601 1.02207488 8.32186601 0.625 5.375 C0.51414062 4.37210937 0.40328125 3.36921875 0.2890625 2.3359375 C0.19367188 1.56507812 0.09828125 0.79421875 0 0 Z " fill="#487CAC" transform="translate(310,83)"/>
<path d="M0 0 C1.32 0.33 2.64 0.66 4 1 C4.33 10.57 4.66 20.14 5 30 C5.99 30.33 6.98 30.66 8 31 C6.35830472 33.02054804 4.69088222 35.02043058 3 37 C2.67 37 2.34 37 2 37 C2 25.45 2 13.9 2 2 C1.34 2 0.68 2 0 2 C0 1.34 0 0.68 0 0 Z " fill="#C8F0DF" transform="translate(105,4)"/>
<path d="M0 0 C1.02802734 -0.01224609 2.05605469 -0.02449219 3.11523438 -0.03710938 C4.60700195 -0.04000977 4.60700195 -0.04000977 6.12890625 -0.04296875 C7.02810791 -0.04707764 7.92730957 -0.05118652 8.85375977 -0.05541992 C11.73007454 0.21500748 13.85580271 0.90216116 16.4375 2.1875 C16.9325 3.1775 16.9325 3.1775 17.4375 4.1875 C16.4475 4.5175 15.4575 4.8475 14.4375 5.1875 C14.4375 4.5275 14.4375 3.8675 14.4375 3.1875 C1.5675 2.6925 1.5675 2.6925 -11.5625 2.1875 C-11.5625 2.8475 -11.5625 3.5075 -11.5625 4.1875 C-14.54101562 4.48046875 -14.54101562 4.48046875 -17.51953125 4.7734375 C-19.86238142 5.11415391 -19.86238142 5.11415391 -22.5625 7.1875 C-21.19266497 4.02634224 -20.5734362 3.1947908 -17.5625 1.1875 C-11.81897577 -0.24155436 -5.88131301 0.00370127 0 0 Z " fill="#3973AA" transform="translate(133.5625,30.8125)"/>
<path d="M0 0 C0.33 0.66 0.66 1.32 1 2 C1.73758545 1.93433838 2.4751709 1.86867676 3.23510742 1.80102539 C12.5923134 1.01940406 21.93018067 0.68885793 31.3125 0.4375 C32.84310711 0.39416715 34.37370617 0.35054901 35.90429688 0.30664062 C39.60277793 0.2011494 43.30135177 0.09947934 47 0 C46.67 0.66 46.34 1.32 46 2 C45.29915283 2.02505615 44.59830566 2.0501123 43.8762207 2.07592773 C40.68814512 2.19226545 37.50033758 2.31482044 34.3125 2.4375 C32.65831055 2.49647461 32.65831055 2.49647461 30.97070312 2.55664062 C29.90400391 2.59853516 28.83730469 2.64042969 27.73828125 2.68359375 C26.75899658 2.72025146 25.77971191 2.75690918 24.77075195 2.79467773 C22.10208493 2.99243516 19.61877316 3.47028878 17 4 C15.59927002 4.0747206 14.19564939 4.10836374 12.79296875 4.09765625 C12.04208984 4.09443359 11.29121094 4.09121094 10.51757812 4.08789062 C9.74865234 4.07951172 8.97972656 4.07113281 8.1875 4.0625 C7.00510742 4.05573242 7.00510742 4.05573242 5.79882812 4.04882812 C3.86585239 4.03711312 1.93291607 4.01917998 0 4 C0 2.68 0 1.36 0 0 Z " fill="#D3F0E1" transform="translate(8,83)"/>
<path d="M0 0 C-0.99 0 -1.98 0 -3 0 C-3 0.66 -3 1.32 -3 2 C-11.08569454 5.70145128 -11.08569454 5.70145128 -15.0625 7 C-18.29917583 8.10184709 -21.16578044 9.57282809 -24.16796875 11.1953125 C-26 12 -26 12 -29 12 C-28.67 11.01 -28.34 10.02 -28 9 C-26.68 9 -25.36 9 -24 9 C-24 8.34 -24 7.68 -24 7 C-24.66 6.67 -25.32 6.34 -26 6 C-21.07262981 4.02905192 -17.21979128 3.8200072 -12 4 C-11.67 3.01 -11.34 2.02 -11 1 C-7.08609399 -0.47694566 -4.00565371 -1.60226148 0 0 Z " fill="#C5EAD2" transform="translate(38,70)"/>
<path d="M0 0 C0 0.33 0 0.66 0 1 C-0.74048584 1.09498779 -1.48097168 1.18997559 -2.24389648 1.2878418 C-5.64460389 1.7351985 -9.04074244 2.21111434 -12.4375 2.6875 C-13.60216797 2.83638672 -14.76683594 2.98527344 -15.96679688 3.13867188 C-22.43972283 4.06858518 -27.52465473 5.2686155 -33.01977539 8.88989258 C-35.3224028 10.18073795 -37.40509674 10.59803612 -40 11 C-40 10.34 -40 9.68 -40 9 C-39.34 9 -38.68 9 -38 9 C-38 8.01 -38 7.02 -38 6 C-37.40832031 5.87882812 -36.81664062 5.75765625 -36.20703125 5.6328125 C-35.41683594 5.46523438 -34.62664063 5.29765625 -33.8125 5.125 C-33.03519531 4.96257813 -32.25789063 4.80015625 -31.45703125 4.6328125 C-28.98149424 4.06311085 -28.98149424 4.06311085 -26.6875 3 C-23.24496726 1.71905758 -19.81269149 1.29106149 -16.1875 0.875 C-15.51396484 0.78863281 -14.84042969 0.70226563 -14.14648438 0.61328125 C-9.40270401 0.0413039 -4.77722107 -0.07489484 0 0 Z " fill="#AFE2C7" transform="translate(77,36)"/>
<path d="M0 0 C-2.90600261 1.25664978 -4.79604584 2 -8 2 C-8 2.66 -8 3.32 -8 4 C-6.62328125 3.7834375 -6.62328125 3.7834375 -5.21875 3.5625 C1.25275333 2.58361714 7.45390849 1.73815634 14 2 C12 5 12 5 8.6640625 5.984375 C7.32024258 6.25260783 5.9736725 6.50734112 4.625 6.75 C3.95210937 6.88792969 3.27921875 7.02585937 2.5859375 7.16796875 C-0.87018492 7.82789764 -3.66084484 8.26716657 -7 7 C-6.01 7 -5.02 7 -4 7 C-4 6.34 -4 5.68 -4 5 C-5.65 5 -7.3 5 -9 5 C-9 3.68 -9 2.36 -9 1 C-5.57367167 -0.61798838 -3.61944899 -1.34053666 0 0 Z " fill="#9ED7B5" transform="translate(91,15)"/>
<path d="M0 0 C0.33 0 0.66 0 1 0 C1 6.6 1 13.2 1 20 C7.56759317 20.59710604 7.56759317 20.59710604 10.9375 18.25 C14.04604785 13.35168217 13.40548806 8.64980028 13 3 C13.66 3.33 14.32 3.66 15 4 C15.05382106 6.62527189 15.09358313 9.24944713 15.125 11.875 C15.14175781 12.62136719 15.15851563 13.36773437 15.17578125 14.13671875 C15.1933959 16.09194461 15.10320189 18.04742021 15 20 C13 22 13 22 9.9609375 22.1953125 C6.640625 22.13020833 3.3203125 22.06510417 0 22 C0 14.74 0 7.48 0 0 Z " fill="#DEF4F9" transform="translate(249,41)"/>
<path d="M0 0 C-1.33188071 0.60736227 -2.6656095 1.21067185 -4 1.8125 C-5.11375 2.31716797 -5.11375 2.31716797 -6.25 2.83203125 C-9.78741453 4.33442748 -13.40146198 5.65054824 -17 7 C-7.1 7 2.8 7 13 7 C13 7.33 13 7.66 13 8 C8.9269597 8.97685365 5.131793 9.11545444 0.94921875 9.09765625 C0.29041214 9.0962413 -0.36839447 9.09482635 -1.04716492 9.09336853 C-3.13565762 9.087805 -5.22404011 9.07525947 -7.3125 9.0625 C-8.73502449 9.05748028 -10.15755066 9.0529182 -11.58007812 9.04882812 C-15.05342077 9.03784757 -18.52669961 9.02060835 -22 9 C-21 6 -21 6 -19.17407227 5.00097656 C-18.39604248 4.71706055 -17.6180127 4.43314453 -16.81640625 4.140625 C-15.97142578 3.82996094 -15.12644531 3.51929688 -14.25585938 3.19921875 C-13.36705078 2.88597656 -12.47824219 2.57273438 -11.5625 2.25 C-10.67755859 1.92128906 -9.79261719 1.59257813 -8.88085938 1.25390625 C-2.26726974 -1.13363487 -2.26726974 -1.13363487 0 0 Z " fill="#73BC93" transform="translate(49,56)"/>
<path d="M0 0 C4 3 4 3 4.8125 5 C6.70759858 8.19174497 9.56102513 9.06439393 13 10 C17.47526317 10.49575943 21.93789124 10.60158276 26.4375 10.6875 C27.64599609 10.72166016 28.85449219 10.75582031 30.09960938 10.79101562 C33.06631349 10.87309835 36.03273676 10.94238015 39 11 C39 11.33 39 11.66 39 12 C34.70856843 12.11742499 30.41755727 12.18765996 26.125 12.25 C24.92101562 12.28351563 23.71703125 12.31703125 22.4765625 12.3515625 C14.77622935 12.43526177 8.88335737 11.52615535 2 8 C1.67 9.65 1.34 11.3 1 13 C0.67 13 0.34 13 0 13 C0 8.71 0 4.42 0 0 Z " fill="#9ABDDD" transform="translate(107,95)"/>
<path d="M0 0 C0.2475 0.94875 0.495 1.8975 0.75 2.875 C2.19329188 6.48322971 2.73736801 6.4213071 6 8 C6.75 10.625 6.75 10.625 7 13 C-2.12177122 6.35793358 -2.12177122 6.35793358 -5 3 C-5 2.34 -5 1.68 -5 1 C-5.99 1 -6.98 1 -8 1 C-8.33 2.32 -8.66 3.64 -9 5 C-9 3.35 -9 1.7 -9 0 C-5.67465243 -1.10844919 -3.37817425 -0.84454356 0 0 Z " fill="#2E6BA8" transform="translate(180,64)"/>
<path d="M0 0 C0.8971875 0.309375 0.8971875 0.309375 1.8125 0.625 C0.8225 0.955 -0.1675 1.285 -1.1875 1.625 C-1.1875 2.285 -1.1875 2.945 -1.1875 3.625 C1.7825 3.955 4.7525 4.285 7.8125 4.625 C7.8125 4.955 7.8125 5.285 7.8125 5.625 C0.75796999 6.82943195 -6.02187211 7.90600502 -13.1875 7.625 C-13.1875 6.965 -13.1875 6.305 -13.1875 5.625 C-10.5475 4.965 -7.9075 4.305 -5.1875 3.625 C-5.1875 2.965 -5.1875 2.305 -5.1875 1.625 C-2.1875 -0.375 -2.1875 -0.375 0 0 Z " fill="#3E9E6B" transform="translate(96.1875,11.375)"/>
<path d="M0 0 C0.66 0.33 1.32 0.66 2 1 C1.67 1.66 1.34 2.32 1 3 C6.05106589 3.10523054 10.85670839 2.94189132 15.87109375 2.22265625 C19.90237216 1.80103631 23.95214934 1.92534702 28 2 C28 2.33 28 2.66 28 3 C16.36173911 5.01469054 4.78529599 5.58500103 -7 6 C-4.74259377 3.66475218 -2.7194239 1.81294927 0 0 Z " fill="#409669" transform="translate(45,43)"/>
<path d="M0 0 C0.99 0.33 1.98 0.66 3 1 C3.19406478 2.64507218 3.38007935 4.29109594 3.5625 5.9375 C3.66691406 6.85402344 3.77132812 7.77054688 3.87890625 8.71484375 C3.91886719 9.46894531 3.95882812 10.22304688 4 11 C3 12 3 12 0.71484375 12.09765625 C-0.65994141 12.08025391 -0.65994141 12.08025391 -2.0625 12.0625 C-2.98160156 12.05347656 -3.90070313 12.04445313 -4.84765625 12.03515625 C-5.55792969 12.02355469 -6.26820313 12.01195312 -7 12 C-7.433125 11.030625 -7.86625 10.06125 -8.3125 9.0625 C-9.7014861 5.72268235 -9.7014861 5.72268235 -13 5 C-15.22574335 4.77548542 -17.45581519 4.59217122 -19.6875 4.4375 C-21.45673828 4.31181641 -21.45673828 4.31181641 -23.26171875 4.18359375 C-24.16535156 4.12300781 -25.06898438 4.06242187 -26 4 C-26 3.67 -26 3.34 -26 3 C-23.4149133 2.86473384 -20.83691248 2.76582347 -18.25 2.6875 C-17.52039063 2.64560547 -16.79078125 2.60371094 -16.0390625 2.56054688 C-12.11777217 2.47142664 -10.40751451 2.62222646 -7.484375 5.33203125 C-6 8 -6 8 -6 11 C-3.36 11 -0.72 11 2 11 C1.855625 9.741875 1.71125 8.48375 1.5625 7.1875 C1.48128906 6.47980469 1.40007812 5.77210937 1.31640625 5.04296875 C1.02829265 2.80603607 1.02829265 2.80603607 0 0 Z " fill="#CBE0EE" transform="translate(155,37)"/>
<path d="M0 0 C-2.05233685 2.2477975 -3.00667261 3.0022242 -6 4 C-7.56118428 4.06740865 -9.1250252 4.08514456 -10.6875 4.0625 C-11.89986328 4.04896484 -11.89986328 4.04896484 -13.13671875 4.03515625 C-14.05904297 4.01775391 -14.05904297 4.01775391 -15 4 C-15.33 3.34 -15.66 2.68 -16 2 C-13.26466565 0.17644377 -11.67356087 -0.51551683 -8.5625 -1.25 C-7.80066406 -1.44078125 -7.03882813 -1.6315625 -6.25390625 -1.828125 C-3.56594541 -2.03309948 -2.27022699 -1.38592445 0 0 Z " fill="#0E5FAC" transform="translate(319,100)"/>
<path d="M0 0 C0.33 11.22 0.66 22.44 1 34 C1.99 33.34 2.98 32.68 4 32 C3.1875 33.9375 3.1875 33.9375 2 36 C0.515 36.495 0.515 36.495 -1 37 C-1.33 25.78 -1.66 14.56 -2 3 C-3.32 3.33 -4.64 3.66 -6 4 C-2.25 0 -2.25 0 0 0 Z " fill="#559F7F" transform="translate(107,6)"/>
<path d="M0 0 C2.25 0.25 2.25 0.25 4 1 C1 3 1 3 -2 3 C-2 3.66 -2 4.32 -2 5 C-1.34 5.66 -0.68 6.32 0 7 C-4.75 10 -4.75 10 -7 10 C-7 15.28 -7 20.56 -7 26 C-9.30055997 22.54916005 -9.27010256 21.12824272 -9.25 17.0625 C-9.25515625 16.02222656 -9.2603125 14.98195313 -9.265625 13.91015625 C-8.8551472 9.41300979 -7.2488454 6.99893422 -4 4 C-3.360625 3.2575 -2.72125 2.515 -2.0625 1.75 C-1.381875 1.1725 -0.70125 0.595 0 0 Z " fill="#618DB7" transform="translate(296,32)"/>
<path d="M0 0 C3.96 0 7.92 0 12 0 C10.515 2.475 10.515 2.475 9 5 C6.51953125 5.48828125 6.51953125 5.48828125 3.8125 5.3125 C2.91144531 5.26738281 2.01039063 5.22226562 1.08203125 5.17578125 C0.39496094 5.11777344 -0.29210937 5.05976562 -1 5 C-0.67 3.35 -0.34 1.7 0 0 Z " fill="#0D60AF" transform="translate(238,34)"/>
<path d="M0 0 C3.875 1.75 3.875 1.75 5 4 C5.09706713 6.14404169 5.12978536 8.29126751 5.125 10.4375 C5.12757813 11.59121094 5.13015625 12.74492188 5.1328125 13.93359375 C5 17 5 17 4 20 C3.01 19.67 2.02 19.34 1 19 C1.165 18.484375 1.33 17.96875 1.5 17.4375 C2.77016449 11.24544812 1.67101255 5.95298222 0 0 Z " fill="#33699E" transform="translate(324,76)"/>
<path d="M0 0 C1.4540625 0.0309375 1.4540625 0.0309375 2.9375 0.0625 C2.9375 2.0625 2.9375 2.0625 1.4375 3.6875 C-2.18260808 5.67855945 -4.96243009 5.2675035 -9.0625 5.0625 C-9.0625 4.4025 -9.0625 3.7425 -9.0625 3.0625 C-12.3625 3.0625 -15.6625 3.0625 -19.0625 3.0625 C-19.0625 2.7325 -19.0625 2.4025 -19.0625 2.0625 C-17.99128906 2.00191406 -16.92007813 1.94132812 -15.81640625 1.87890625 C-14.41925609 1.79451463 -13.02212143 1.70986594 -11.625 1.625 C-10.56442383 1.56602539 -10.56442383 1.56602539 -9.48242188 1.50585938 C-5.93804439 1.2853957 -3.33259263 0.06801209 0 0 Z " fill="#46B26F" transform="translate(94.0625,55.9375)"/>
<path d="M0 0 C2.5 1.0625 2.5 1.0625 5 3 C5.3125 6.6875 5.3125 6.6875 5 10 C2.69 10 0.38 10 -2 10 C-2.33 8.02 -2.66 6.04 -3 4 C-2.34 4 -1.68 4 -1 4 C-1 4.66 -1 5.32 -1 6 C-0.34 6 0.32 6 1 6 C0.67 4.02 0.34 2.04 0 0 Z " fill="#2D6699" transform="translate(323,37)"/>
<path d="M0 0 C2.11235001 -0.01188348 4.22176439 -0.06103468 6.33349609 -0.11157227 C7.67853393 -0.12103844 9.0235897 -0.12827255 10.36865234 -0.13305664 C11.59181152 -0.14651123 12.8149707 -0.15996582 14.07519531 -0.17382812 C17.25146484 0.42553711 17.25146484 0.42553711 19.68164062 2.96044922 C20.45870361 4.18066772 20.45870361 4.18066772 21.25146484 5.42553711 C20.92146484 6.08553711 20.59146484 6.74553711 20.25146484 7.42553711 C19.67396484 6.78616211 19.09646484 6.14678711 18.50146484 5.48803711 C14.67470932 1.98017788 11.00665994 2.30405034 5.95458984 2.32788086 C4.14667969 2.33271484 4.14667969 2.33271484 2.30224609 2.33764648 C0.42085937 2.35021484 0.42085937 2.35021484 -1.49853516 2.36303711 C-2.76826172 2.36754883 -4.03798828 2.37206055 -5.34619141 2.37670898 C-8.48035352 2.38849155 -11.61442057 2.40494295 -14.74853516 2.42553711 C-11.09684863 -1.22614942 -4.97052465 0.0132655 0 0 Z " fill="#B4D1E8" transform="translate(132.74853515625,29.574462890625)"/>
<path d="M0 0 C-0.66 0 -1.32 0 -2 0 C-2.33 0.99 -2.66 1.98 -3 3 C-5.97 3 -8.94 3 -12 3 C-12.66 4.32 -13.32 5.64 -14 7 C-16.96175123 6.38722388 -18.38058783 5.74627478 -21 4 C-18.36 3.67 -15.72 3.34 -13 3 C-13 2.34 -13 1.68 -13 1 C-11.58622218 0.63447197 -10.16879424 0.28304505 -8.75 -0.0625 C-7.96109375 -0.25972656 -7.1721875 -0.45695312 -6.359375 -0.66015625 C-3.89605178 -1.01497267 -2.34395868 -0.76877544 0 0 Z " fill="#208B4C" transform="translate(101,21)"/>
<path d="M0 0 C-0.99 1.485 -0.99 1.485 -2 3 C-2.99 2.67 -3.98 2.34 -5 2 C-5 2.66 -5 3.32 -5 4 C-7.70784994 4.33772739 -10.41616996 4.67030687 -13.125 5 C-13.88554688 5.09539062 -14.64609375 5.19078125 -15.4296875 5.2890625 C-19.64909952 5.79830188 -23.74004344 6.10888068 -28 6 C-27.67 5.34 -27.34 4.68 -27 4 C-20.73 3.67 -14.46 3.34 -8 3 C-8 2.34 -8 1.68 -8 1 C-2.25 -1.125 -2.25 -1.125 0 0 Z " fill="#409C68" transform="translate(67,65)"/>
<path d="M0 0 C0.87462891 0.00451172 1.74925781 0.00902344 2.65039062 0.01367188 C4.78779047 0.02535166 6.92515463 0.04328311 9.0625 0.0625 C8.0625 2.0625 8.0625 2.0625 6.13671875 2.73046875 C5.34910156 2.90191406 4.56148437 3.07335938 3.75 3.25 C2.97011719 3.42917969 2.19023438 3.60835937 1.38671875 3.79296875 C-1.02954759 4.07317443 -2.63992952 3.80382137 -4.9375 3.0625 C-4.6075 2.7325 -4.2775 2.4025 -3.9375 2.0625 C-8.2275 2.0625 -12.5175 2.0625 -16.9375 2.0625 C-16.9375 1.7325 -16.9375 1.4025 -16.9375 1.0625 C-11.24910882 0.0822752 -5.76455667 -0.05698801 0 0 Z " fill="#7DC89C" transform="translate(93.9375,30.9375)"/>
<path d="M0 0 C-1.39655297 3.49873271 -2.71260484 4.70891831 -6.125 6.25 C-7.21167969 6.75273438 -7.21167969 6.75273438 -8.3203125 7.265625 C-9.15175781 7.62914062 -9.15175781 7.62914062 -10 8 C-11 5 -11 5 -10 2 C-6.58442859 0.19733731 -3.83134499 -0.218934 0 0 Z " fill="#0A60B1" transform="translate(310,34)"/>
<path d="M0 0 C0.99 0.33 1.98 0.66 3 1 C2.01 2.485 2.01 2.485 1 4 C0.75812349 6.74518321 0.75812349 6.74518321 0.875 9.6875 C0.89304687 10.68136719 0.91109375 11.67523438 0.9296875 12.69921875 C0.95289063 13.45847656 0.97609375 14.21773437 1 15 C-0.65 15.66 -2.3 16.32 -4 17 C-4 16.01 -4 15.02 -4 14 C-3.34 14 -2.68 14 -2 14 C-2.02320313 13.24074219 -2.04640625 12.48148438 -2.0703125 11.69921875 C-2.08835937 10.70535156 -2.10640625 9.71148437 -2.125 8.6875 C-2.14820313 7.70136719 -2.17140625 6.71523438 -2.1953125 5.69921875 C-2 3 -2 3 0 0 Z " fill="#1A5D9D" transform="translate(304,39)"/>
<path d="M0 0 C4.66666667 4 9.33333333 8 14 12 C10.79937313 13.60031344 8.27728194 12.03173691 5 11 C4.67 9.35 4.34 7.7 4 6 C2.68 5.67 1.36 5.34 0 5 C0 3.35 0 1.7 0 0 Z " fill="#2E659B" transform="translate(178,40)"/>
<path d="M0 0 C0.66 0.33 1.32 0.66 2 1 C1.01 2.485 1.01 2.485 0 4 C5.28 4 10.56 4 16 4 C16 4.33 16 4.66 16 5 C9.30324864 6.03026944 2.7685324 6.10152799 -4 6 C-2.84826645 3.53199953 -1.95216435 1.95216435 0 0 Z " fill="#68A882" transform="translate(75,103)"/>
<path d="M0 0 C0 0.33 0 0.66 0 1 C-5.56069582 3.25433614 -11.0785651 3.59961828 -17 4 C-17 3.67 -17 3.34 -17 3 C-19.97 2.505 -19.97 2.505 -23 2 C-23 1.67 -23 1.34 -23 1 C-15.31516461 0.32546899 -7.71589817 -0.1567564 0 0 Z " fill="#B2E8CC" transform="translate(95,32)"/>
<path d="M0 0 C2.31 0.33 4.62 0.66 7 1 C7 1.66 7 2.32 7 3 C9.54194161 2.85811015 12.08347993 2.71160845 14.625 2.5625 C15.33785156 2.52318359 16.05070312 2.48386719 16.78515625 2.44335938 C20.91803682 2.19690319 24.92269024 1.76529947 29 1 C24.99153944 5.00846056 19.93500309 4.21810809 14.625 4.25 C13.77421875 4.270625 12.9234375 4.29125 12.046875 4.3125 C7.21651885 4.34259568 3.91109356 4.18681698 0 1 C0 0.67 0 0.34 0 0 Z " fill="#4879A8" transform="translate(292,102)"/>
<path d="M0 0 C-5.0825515 4.62050137 -10.38451086 5.79718379 -17 7 C-17 6.34 -17 5.68 -17 5 C-15.68 5 -14.36 5 -13 5 C-13 4.34 -13 3.68 -13 3 C-3.82022472 -1.91011236 -3.82022472 -1.91011236 0 0 Z " fill="#D5F5E2" transform="translate(105,7)"/>
<path d="M0 0 C0.33 0 0.66 0 1 0 C1.1083667 2.7302389 1.18746694 5.45614543 1.25 8.1875 C1.28351563 8.95642578 1.31703125 9.72535156 1.3515625 10.51757812 C1.4209807 14.56118821 1.2957051 16.5228395 -0.890625 20.05078125 C-3 22 -3 22 -5 22 C-4.56286876 19.55206504 -4.17390885 18.19564746 -2.5 16.3125 C-0.43402931 13.12746185 -0.48676821 10.5141933 -0.3125 6.75 C-0.24675781 5.48671875 -0.18101562 4.2234375 -0.11328125 2.921875 C-0.07589844 1.95765625 -0.03851563 0.9934375 0 0 Z " fill="#306B9F" transform="translate(265,45)"/>
<path d="M0 0 C3.99110319 2.99332739 5.04539348 4.60213533 7 9 C5.35 8.67 3.7 8.34 2 8 C1.67 9.65 1.34 11.3 1 13 C0.67 13 0.34 13 0 13 C0 8.71 0 4.42 0 0 Z " fill="#B3E1DC" transform="translate(107,95)"/>
<path d="M0 0 C0.99 0.33 1.98 0.66 3 1 C3 1.99 3 2.98 3 4 C3.763125 4.433125 4.52625 4.86625 5.3125 5.3125 C8.62943196 7.39522472 9.5001824 9.44780041 11 13 C7.54798361 11.52278578 5.35038064 9.56205999 2.75 6.875 C2.04359375 6.15054688 1.3371875 5.42609375 0.609375 4.6796875 C-0.18726563 3.84824219 -0.18726563 3.84824219 -1 3 C-0.67 2.01 -0.34 1.02 0 0 Z " fill="#4175A9" transform="translate(201,86)"/>
<path d="M0 0 C-0.6875 2.375 -0.6875 2.375 -2 5 C-4.91456338 6.56938028 -6.67941669 7 -10 7 C-9.67 6.01 -9.34 5.02 -9 4 C-7.68 4 -6.36 4 -5 4 C-5 3.34 -5 2.68 -5 2 C-5.66 1.67 -6.32 1.34 -7 1 C-3.375 -1.125 -3.375 -1.125 0 0 Z " fill="#D9F1E4" transform="translate(19,75)"/>
<path d="M0 0 C0.75410156 0.00451172 1.50820312 0.00902344 2.28515625 0.01367188 C4.14847127 0.02546501 6.01174555 0.04340058 7.875 0.0625 C7.875 0.3925 7.875 0.7225 7.875 1.0625 C3.915 1.0625 -0.045 1.0625 -4.125 1.0625 C-4.785 2.3825 -5.445 3.7025 -6.125 5.0625 C-7.115 5.3925 -8.105 5.7225 -9.125 6.0625 C-9.455 4.4125 -9.785 2.7625 -10.125 1.0625 C-6.93675432 -0.53162284 -3.49603338 -0.03924735 0 0 Z " fill="#269054" transform="translate(77.125,61.9375)"/>
<path d="M0 0 C1.32 0 2.64 0 4 0 C4 0.99 4 1.98 4 3 C4.78375 3.061875 5.5675 3.12375 6.375 3.1875 C7.24125 3.455625 8.1075 3.72375 9 4 C10.1875 6.375 10.1875 6.375 11 9 C11.99 10.485 11.99 10.485 13 12 C9.34435261 10.46563424 7.01301377 8.25017578 4.25 5.4375 C3.45078125 4.63183594 2.6515625 3.82617188 1.828125 2.99609375 C0 1 0 1 0 0 Z " fill="#BCD9EC" transform="translate(178,39)"/>
<path d="M0 0 C1.33795188 0.31428277 2.67053375 0.65156297 4 1 C5.51270605 1.14129118 7.02928128 1.24462817 8.546875 1.31640625 C9.39121094 1.35830078 10.23554688 1.40019531 11.10546875 1.44335938 C12.41451172 1.50233398 12.41451172 1.50233398 13.75 1.5625 C14.63816406 1.60568359 15.52632813 1.64886719 16.44140625 1.69335938 C18.62745963 1.79913615 20.81362089 1.90122546 23 2 C23 2.33 23 2.66 23 3 C19.7515089 3.25549427 16.50154879 3.47476093 13.25 3.6875 C11.86941406 3.79674805 11.86941406 3.79674805 10.4609375 3.90820312 C9.57148438 3.96298828 8.68203125 4.01777344 7.765625 4.07421875 C6.94868164 4.13182373 6.13173828 4.18942871 5.29003906 4.2487793 C2.43745442 3.93888764 1.12576705 2.86751623 -1 1 C-0.67 0.67 -0.34 0.34 0 0 Z " fill="#B8D5ED" transform="translate(293,104)"/>
<path d="M0 0 C4.78775956 3.53613714 9.46451416 7.14483704 14 11 C12 12 12 12 9.4375 11.25 C7 10 7 10 6 7 C5.01 6.67 4.02 6.34 3 6 C3 5.34 3 4.68 3 4 C2.01 3.67 1.02 3.34 0 3 C0 2.01 0 1.02 0 0 Z " fill="#3D71A3" transform="translate(194,55)"/>
<path d="M0 0 C0.99 0.66 1.98 1.32 3 2 C5.50896686 2.45601261 5.50896686 2.45601261 8.1875 2.625 C9.08855469 2.69976562 9.98960937 2.77453125 10.91796875 2.8515625 C11.60503906 2.90054688 12.29210937 2.94953125 13 3 C13 3.33 13 3.66 13 4 C11.77023437 4.09087891 11.77023437 4.09087891 10.515625 4.18359375 C8.89914062 4.30927734 8.89914062 4.30927734 7.25 4.4375 C6.18265625 4.51871094 5.1153125 4.59992188 4.015625 4.68359375 C1.56320038 4.94090773 -0.63921291 5.31812218 -3 6 C-3.33 4.68 -3.66 3.36 -4 2 C-2.68 2 -1.36 2 0 2 C0 1.34 0 0.68 0 0 Z " fill="#4381BD" transform="translate(296,94)"/>
<path d="M0 0 C2.64 0 5.28 0 8 0 C8 1.98 8 3.96 8 6 C7.01 5.67 6.02 5.34 5 5 C5 4.34 5 3.68 5 3 C3.68 3 2.36 3 1 3 C0.67 3.66 0.34 4.32 0 5 C0 3.35 0 1.7 0 0 Z " fill="#366B97" transform="translate(288,90)"/>
<path d="M0 0 C3.63 0 7.26 0 11 0 C11.37211538 9.55096154 11.37211538 9.55096154 9.48828125 11.82421875 C8.75158203 12.40623047 8.75158203 12.40623047 8 13 C7.73747375 8.66831683 8.70756464 5.1196377 10 1 C8.3603125 1.309375 8.3603125 1.309375 6.6875 1.625 C3 2 3 2 0 0 Z " fill="#E9FBF1" transform="translate(76,83)"/>
<path d="M0 0 C3.3 0.33 6.6 0.66 10 1 C5.5 4.375 5.5 4.375 1.25 4.6875 C0.05117188 4.78611328 0.05117188 4.78611328 -1.171875 4.88671875 C-1.77515625 4.92410156 -2.3784375 4.96148437 -3 5 C-2.01 4.34 -1.02 3.68 0 3 C0 2.01 0 1.02 0 0 Z " fill="#219553" transform="translate(60,58)"/>
<path d="M0 0 C0.99 0.495 0.99 0.495 2 1 C2 2.32 2 3.64 2 5 C4.31 5 6.62 5 9 5 C9 3.35 9 1.7 9 0 C9.66 0.66 10.32 1.32 11 2 C10.625 4.625 10.625 4.625 10 7 C7.03 7 4.06 7 1 7 C0.67 4.69 0.34 2.38 0 0 Z " fill="#9ABCD7" transform="translate(319,42)"/>
<path d="M0 0 C0.99 0.495 0.99 0.495 2 1 C1.01 1.495 1.01 1.495 0 2 C0 1.34 0 0.68 0 0 Z M0 3 C-2.375 4.5625 -2.375 4.5625 -5 6 C-5.66 5.67 -6.32 5.34 -7 5 C-7.28875 5.969375 -7.5775 6.93875 -7.875 7.9375 C-9 11 -9 11 -11 12 C-10.47229401 8.20051686 -9.62859821 5.83079807 -7 3 C-3.86650268 1.95550089 -3.01031744 2.06576355 0 3 Z " fill="#175FA4" transform="translate(122,33)"/>
<path d="M0 0 C3.62493334 -0.05787784 7.24974857 -0.0935542 10.875 -0.125 C11.90753906 -0.14175781 12.94007812 -0.15851563 14.00390625 -0.17578125 C14.99003906 -0.18222656 15.97617187 -0.18867187 16.9921875 -0.1953125 C18.35899658 -0.21102295 18.35899658 -0.21102295 19.75341797 -0.22705078 C22 0 22 0 24 2 C21.69 2.33 19.38 2.66 17 3 C17 2.67 17 2.34 17 2 C11.39 1.67 5.78 1.34 0 1 C0 0.67 0 0.34 0 0 Z " fill="#C2F3D6" transform="translate(29,65)"/>
<path d="M0 0 C0 0.66 0 1.32 0 2 C5.94 2 11.88 2 18 2 C18 2.33 18 2.66 18 3 C10.08 3 2.16 3 -6 3 C-4.60722783 0.21445565 -3.01148006 0 0 0 Z " fill="#348F60" transform="translate(37,61)"/>
<path d="M0 0 C0.66 0.33 1.32 0.66 2 1 C-0.37518611 4.56277917 -1.3560342 4.69407869 -5.375 5.75 C-6.33148438 6.01296875 -7.28796875 6.2759375 -8.2734375 6.546875 C-10.95575307 6.99264664 -12.46597531 6.88871008 -15 6 C-14.25234375 5.73445313 -13.5046875 5.46890625 -12.734375 5.1953125 C-11.74953125 4.84210937 -10.7646875 4.48890625 -9.75 4.125 C-8.77546875 3.77695312 -7.8009375 3.42890625 -6.796875 3.0703125 C-4.04565543 2.08449066 -4.04565543 2.08449066 -1.765625 0.8046875 C-1.18296875 0.53914063 -0.6003125 0.27359375 0 0 Z " fill="#399562" transform="translate(52,54)"/>
<path d="M0 0 C0.66 0 1.32 0 2 0 C2 0.66 2 1.32 2 2 C5.96 2 9.92 2 14 2 C12 4 12 4 9.1796875 4.1953125 C8.08914062 4.17210938 6.99859375 4.14890625 5.875 4.125 C4.77929688 4.10695313 3.68359375 4.08890625 2.5546875 4.0703125 C1.71164063 4.04710938 0.86859375 4.02390625 0 4 C0 2.68 0 1.36 0 0 Z " fill="#CAECD7" transform="translate(69,107)"/>
<path d="M0 0 C3.91939465 3.80411834 7.49102731 7.81576108 11 12 C10.401875 11.690625 9.80375 11.38125 9.1875 11.0625 C6.91043228 9.89790296 6.91043228 9.89790296 4 9 C4 8.34 4 7.68 4 7 C3.34 7 2.68 7 2 7 C1.34 4.69 0.68 2.38 0 0 Z " fill="#3D76A8" transform="translate(309,57)"/>
<path d="M0 0 C0.99 0.33 1.98 0.66 3 1 C0.25 5.875 0.25 5.875 -2 7 C-2.66 7.99 -3.32 8.98 -4 10 C-4.25 7.25 -4.25 7.25 -4 4 C-2 1.625 -2 1.625 0 0 Z " fill="#D2EAF6" transform="translate(291,33)"/>
<path d="M0 0 C6.93 0 13.86 0 21 0 C21 0.99 21 1.98 21 3 C20.42475586 2.84152588 19.84951172 2.68305176 19.25683594 2.51977539 C17.09060223 2.02086674 15.10677317 1.80111676 12.890625 1.68359375 C12.13652344 1.64169922 11.38242188 1.59980469 10.60546875 1.55664062 C9.43951172 1.49766602 9.43951172 1.49766602 8.25 1.4375 C7.06083984 1.37272461 7.06083984 1.37272461 5.84765625 1.30664062 C3.89862185 1.20097009 1.94933252 1.10002034 0 1 C0 0.67 0 0.34 0 0 Z " fill="#3BA168" transform="translate(85,30)"/>
<path d="M0 0 C0 0.33 0 0.66 0 1 C-4.76307437 1.95261487 -9.1666528 2.08333357 -14 2 C-14 1.34 -14 0.68 -14 0 C-8.53190155 -2.4606443 -5.51272919 -1.71084699 0 0 Z " fill="#3C9267" transform="translate(97,17)"/>
<path d="M0 0 C0.33 0 0.66 0 1 0 C1 2.64 1 5.28 1 8 C-3.29 8 -7.58 8 -12 8 C-12 7.01 -12 6.02 -12 5 C-6.06 5.99 -6.06 5.99 0 7 C0 4.69 0 2.38 0 0 Z " fill="#1C5B92" transform="translate(245,97)"/>
<path d="M0 0 C2.9719385 1.12451727 5.33440687 2.22293791 8 4 C8.6875 6.125 8.6875 6.125 9 8 C6.46089803 7.61479436 5.27248877 7.29902057 3.515625 5.37109375 C3.09796875 4.73300781 2.6803125 4.09492187 2.25 3.4375 C1.82203125 2.79683594 1.3940625 2.15617187 0.953125 1.49609375 C0.48132813 0.75552734 0.48132813 0.75552734 0 0 Z " fill="#2E679B" transform="translate(209,95)"/>
<path d="M0 0 C1.65 0 3.3 0 5 0 C5 0.99 5 1.98 5 3 C5.66 3 6.32 3 7 3 C7.33 4.98 7.66 6.96 8 9 C4.36905358 6.35039045 2.10148204 3.98175544 0 0 Z " fill="#2F6A9A" transform="translate(305,77)"/>
<path d="M0 0 C3.81684226 1.55500981 6.19195732 4.03595495 9 7 C8.34 7.66 7.68 8.32 7 9 C5.0625 8.25 5.0625 8.25 3 7 C2.375 5.0625 2.375 5.0625 2 3 C1.34 2.01 0.68 1.02 0 0 Z " fill="#1D5B97" transform="translate(314,66)"/>
<path d="M0 0 C-0.6875 2.375 -0.6875 2.375 -2 5 C-4.625 6.3125 -4.625 6.3125 -7 7 C-6.22006468 2.47637516 -4.81844319 0 0 0 Z " fill="#30659A" transform="translate(279,59)"/>
<path d="M0 0 C-0.763125 0.2475 -1.52625 0.495 -2.3125 0.75 C-6.50576507 2.70035584 -7.62381259 4.97043445 -9.1875 9.25 C-9.455625 10.1575 -9.72375 11.065 -10 12 C-11.23896243 9.07154334 -10.99614276 7.98949975 -9.875 4.9375 C-7.22065611 0.7790279 -4.94960636 -1.64986879 0 0 Z " fill="#215A91" transform="translate(120,35)"/>
<path d="M0 0 C1.31291016 -0.02513672 1.31291016 -0.02513672 2.65234375 -0.05078125 C5.0625 0.3125 5.0625 0.3125 8.0625 3.3125 C3.1125 2.9825 -1.8375 2.6525 -6.9375 2.3125 C-4.42737037 -0.19762963 -3.46944763 0.01528391 0 0 Z " fill="#356FA3" transform="translate(253.9375,36.6875)"/>
<path d="M0 0 C-0.99 1.485 -0.99 1.485 -2 3 C-5.96 2.67 -9.92 2.34 -14 2 C-14 1.67 -14 1.34 -14 1 C-9.23692563 0.04738513 -4.8333472 -0.08333357 0 0 Z " fill="#6EC18C" transform="translate(105,17)"/>
<path d="M0 0 C0 0.33 0 0.66 0 1 C-7.01300014 3.4463954 -11.69852145 4.11378486 -19 3 C-19 2.67 -19 2.34 -19 2 C-18.22914062 1.93941406 -17.45828125 1.87882812 -16.6640625 1.81640625 C-15.15972656 1.69072266 -15.15972656 1.69072266 -13.625 1.5625 C-12.62726563 1.48128906 -11.62953125 1.40007812 -10.6015625 1.31640625 C-6.81613188 0.85601604 -3.98267162 -0.08657982 0 0 Z " fill="#F1FEF4" transform="translate(89,109)"/>
<path d="M0 0 C2.04219706 1.69179328 2.91793306 2.63727666 3.51171875 5.26171875 C3.56972656 6.06222656 3.62773437 6.86273438 3.6875 7.6875 C3.75324219 8.49574219 3.81898438 9.30398437 3.88671875 10.13671875 C3.92410156 10.75160156 3.96148437 11.36648437 4 12 C3.01 12.66 2.02 13.32 1 14 C1.01160156 13.32453125 1.02320313 12.6490625 1.03515625 11.953125 C1.04417969 11.06109375 1.05320312 10.1690625 1.0625 9.25 C1.07990234 7.92742187 1.07990234 7.92742187 1.09765625 6.578125 C1.00826198 4.2181162 0.66912821 2.25501476 0 0 Z " fill="#D7EFF7" transform="translate(308,82)"/>
<path d="M0 0 C-0.99 1.485 -0.99 1.485 -2 3 C-4.3828125 3.29296875 -4.3828125 3.29296875 -7.125 3.1875 C-8.03507812 3.16042969 -8.94515625 3.13335937 -9.8828125 3.10546875 C-10.58148438 3.07066406 -11.28015625 3.03585938 -12 3 C-7.82744729 -0.58050131 -5.33135955 -0.26656798 0 0 Z " fill="#4AA370" transform="translate(59,40)"/>
<path d="M0 0 C2.8125 -0.3125 2.8125 -0.3125 6 0 C7.88599343 2.38892501 9 3.91851558 9 7 C8.34 7 7.68 7 7 7 C6.67 6.34 6.34 5.68 6 5 C5.01 4.67 4.02 4.34 3 4 C3 3.34 3 2.68 3 2 C2.01 2 1.02 2 0 2 C0 1.34 0 0.68 0 0 Z " fill="#1A5C96" transform="translate(269,35)"/>
<path d="M0 0 C0.99 0 1.98 0 3 0 C3 0.99 3 1.98 3 3 C3.66 3 4.32 3 5 3 C5.33 5.31 5.66 7.62 6 10 C2.79851787 7.86567858 2.47793261 7.31580104 1.3125 3.875 C1.06113281 3.15054688 0.80976562 2.42609375 0.55078125 1.6796875 C0.36902344 1.12539062 0.18726562 0.57109375 0 0 Z " fill="#306CA4" transform="translate(108,93)"/>
<path d="M0 0 C2.475 0.495 2.475 0.495 5 1 C5 3.64 5 6.28 5 9 C4.34 9 3.68 9 3 9 C2.01 6.03 1.02 3.06 0 0 Z " fill="#E4F7FD" transform="translate(327,39)"/>
<path d="M0 0 C1.65 0 3.3 0 5 0 C2.31158141 2.25245881 0.35358125 3.88213958 -3 5 C-3.33 5.99 -3.66 6.98 -4 8 C-4.66 8 -5.32 8 -6 8 C-6 6.35 -6 4.7 -6 3 C-5.195625 2.87625 -4.39125 2.7525 -3.5625 2.625 C-2.716875 2.41875 -1.87125 2.2125 -1 2 C-0.67 1.34 -0.34 0.68 0 0 Z " fill="#CBEAD8" transform="translate(61,27)"/>
<path d="M0 0 C0 0.66 0 1.32 0 2 C-0.66 2 -1.32 2 -2 2 C-1.34 3.98 -0.68 5.96 0 8 C-0.66 8 -1.32 8 -2 8 C-2.66 6.35 -3.32 4.7 -4 3 C-6.31 2.67 -8.62 2.34 -11 2 C-11 1.67 -11 1.34 -11 1 C-3.375 0 -3.375 0 0 0 Z " fill="#1E61A3" transform="translate(260,65)"/>
<path d="M0 0 C0.79921875 0.01804687 1.5984375 0.03609375 2.421875 0.0546875 C3.02515625 0.07789062 3.6284375 0.10109375 4.25 0.125 C1.24559979 2.12793347 -0.45993945 2.61771626 -3.9375 3.25 C-5.28908203 3.50136719 -5.28908203 3.50136719 -6.66796875 3.7578125 C-7.35503906 3.87898438 -8.04210937 4.00015625 -8.75 4.125 C-8.75 3.465 -8.75 2.805 -8.75 2.125 C-5.68753253 0.34090198 -3.52920727 -0.10380021 0 0 Z " fill="#D4F5E5" transform="translate(75.75,22.875)"/>
<path d="M0 0 C-0.66 0 -1.32 0 -2 0 C-2.33 0.99 -2.66 1.98 -3 3 C-6.3 2.67 -9.6 2.34 -13 2 C-8.7920942 -0.80527053 -4.85771358 -1.68151624 0 0 Z " fill="#46A269" transform="translate(101,21)"/>
<path d="M0 0 C2.64 0.99 5.28 1.98 8 3 C8 3.33 8 3.66 8 4 C6.02 4 4.04 4 2 4 C1.67 4.99 1.34 5.98 1 7 C0.34 6.67 -0.32 6.34 -1 6 C-0.67 4.02 -0.34 2.04 0 0 Z " fill="#E5F9F4" transform="translate(108,102)"/>
<path d="M0 0 C0.598125 0.33 1.19625 0.66 1.8125 1 C4.05386471 2.20787988 4.05386471 2.20787988 7 2 C7.99 3.485 7.99 3.485 9 5 C8.67 5.99 8.34 6.98 8 8 C6.66372225 6.85760183 5.33104612 5.71098945 4 4.5625 C3.2575 3.92441406 2.515 3.28632812 1.75 2.62890625 C1.1725 2.09136719 0.595 1.55382812 0 1 C0 0.67 0 0.34 0 0 Z " fill="#4B7FAF" transform="translate(178,69)"/>
<path d="M0 0 C0.66 0 1.32 0 2 0 C2 3.63 2 7.26 2 11 C-1 8 -1 8 -1.25 4.375 C-1 1 -1 1 0 0 Z " fill="#B1D2EB" transform="translate(305,42)"/>
<path d="M0 0 C1 2 1 2 0.5 4 C-1.75069493 7.00092657 -4.44640878 7.21031306 -8 8 C-5.33333333 5.33333333 -2.66666667 2.66666667 0 0 Z " fill="#61AC81" transform="translate(85,95)"/>
<path d="M0 0 C2.475 0.495 2.475 0.495 5 1 C5.33 2.98 5.66 4.96 6 7 C1.125 2.25 1.125 2.25 0 0 Z " fill="#36699F" transform="translate(299,70)"/>
<path d="M0 0 C2.97 0.495 2.97 0.495 6 1 C6.66 2.98 7.32 4.96 8 7 C3.8575633 5.61918777 2.67796901 3.40174442 0 0 Z " fill="#BEDBED" transform="translate(203,62)"/>
<path d="M0 0 C-6 4 -6 4 -11 4 C-11 3.34 -11 2.68 -11 2 C-7.17679443 0.57741188 -4.08718695 -0.24042276 0 0 Z " fill="#C8F2DC" transform="translate(59,51)"/>
<path d="M0 0 C-0.33 1.32 -0.66 2.64 -1 4 C-3.64 4 -6.28 4 -9 4 C-3 0 -3 0 0 0 Z " fill="#B8D5E9" transform="translate(325,102)"/>
<path d="M0 0 C0 0.99 0 1.98 0 3 C-2.3125 4.75 -2.3125 4.75 -5 6 C-5.99 5.67 -6.98 5.34 -8 5 C-7.34 5 -6.68 5 -6 5 C-5.7525 4.360625 -5.505 3.72125 -5.25 3.0625 C-4 1 -4 1 -1.875 0.25 C-1.25625 0.1675 -0.6375 0.085 0 0 Z " fill="#4777A5" transform="translate(154,99)"/>
<path d="M0 0 C0.66 0.99 1.32 1.98 2 3 C-2.39453125 7.00390625 -2.39453125 7.00390625 -4 8 C-4.99 7.67 -5.98 7.34 -7 7 C-5.37660195 5.29115995 -3.70680947 3.62553283 -2 2 C-1.34 2 -0.68 2 0 2 C0 1.34 0 0.68 0 0 Z " fill="#1E63A2" transform="translate(147,95)"/>
<path d="M0 0 C0.99 0 1.98 0 3 0 C2.67 1.65 2.34 3.3 2 5 C1.01 5.33 0.02 5.66 -1 6 C-1.042721 4.33388095 -1.04063832 2.66617115 -1 1 C-0.67 0.67 -0.34 0.34 0 0 Z " fill="#0D60AA" transform="translate(151,93)"/>
<path d="M0 0 C1.9375 0.3125 1.9375 0.3125 4 1 C4.33 1.99 4.66 2.98 5 4 C2.03 4 -0.94 4 -4 4 C-2.68 3.67 -1.36 3.34 0 3 C0 2.01 0 1.02 0 0 Z " fill="#175AA0" transform="translate(253,67)"/>
<path d="M0 0 C0.99 0.33 1.98 0.66 3 1 C2.01 2.485 2.01 2.485 1 4 C0.75892674 6.28648848 0.75892674 6.28648848 0.875 8.6875 C0.89304687 9.49574219 0.91109375 10.30398437 0.9296875 11.13671875 C0.95289063 11.75160156 0.97609375 12.36648437 1 13 C0.34 12.67 -0.32 12.34 -1 12 C-1.02698189 10.37509046 -1.04638757 8.75005367 -1.0625 7.125 C-1.07410156 6.22007813 -1.08570313 5.31515625 -1.09765625 4.3828125 C-1 2 -1 2 0 0 Z " fill="#346CA2" transform="translate(304,39)"/>
<path d="M0 0 C1.65 0 3.3 0 5 0 C5 1.32 5 2.64 5 4 C3.35 4 1.7 4 0 4 C0 2.68 0 1.36 0 0 Z " fill="#0B5FA9" transform="translate(316,35)"/>
<path d="M0 0 C3.53372712 1.96318174 6.24479785 4.04070881 9 7 C6.07459296 6.37312706 3.5164751 5.64872507 1 4 C0.25 1.875 0.25 1.875 0 0 Z " fill="#CCE6F2" transform="translate(192,83)"/>
<path d="M0 0 C1.98 0.99 1.98 0.99 4 2 C4 2.66 4 3.32 4 4 C4.99 4 5.98 4 7 4 C7 4.66 7 5.32 7 6 C4.03 5.505 4.03 5.505 1 5 C0.67 3.35 0.34 1.7 0 0 Z " fill="#2D6AA7" transform="translate(208,68)"/>
<path d="M0 0 C0.66 0 1.32 0 2 0 C4 3 4 3 4 6 C2.68 5.67 1.36 5.34 0 5 C-0.5625 3.0625 -0.5625 3.0625 -1 1 C-0.67 0.67 -0.34 0.34 0 0 Z " fill="#215E96" transform="translate(297,64)"/>
<path d="M0 0 C2 0 2 0 4.625 2.5 C5.40875 3.325 6.1925 4.15 7 5 C6.67 5.66 6.34 6.32 6 7 C3.69 6.34 1.38 5.68 -1 5 C-0.34 4.67 0.32 4.34 1 4 C0.67 2.68 0.34 1.36 0 0 Z " fill="#6B94BF" transform="translate(171,33)"/>
<path d="M0 0 C0.99 0.33 1.98 0.66 3 1 C0.03 3.475 0.03 3.475 -3 6 C-3.33 5.01 -3.66 4.02 -4 3 C-2.1875 1.4375 -2.1875 1.4375 0 0 Z " fill="#DBF7E9" transform="translate(77,99)"/>
<path d="M0 0 C1.9375 0.3125 1.9375 0.3125 4 1 C4.33 1.99 4.66 2.98 5 4 C2.69 4 0.38 4 -2 4 C-1.34 2.68 -0.68 1.36 0 0 Z " fill="#208E51" transform="translate(19,79)"/>
<path d="M0 0 C1 2 1 2 1 6 C-0.65 6 -2.3 6 -4 6 C-3.6875 4.125 -3.6875 4.125 -3 2 C-2.01 1.34 -1.02 0.68 0 0 Z " fill="#B5D4E9" transform="translate(277,63)"/>
<path d="M0 0 C-0.99 0.33 -1.98 0.66 -3 1 C-2.67 1.66 -2.34 2.32 -2 3 C-3.98 3 -5.96 3 -8 3 C-7.67 2.01 -7.34 1.02 -7 0 C-3.86650268 -1.04449911 -3.01031744 -0.93423645 0 0 Z " fill="#87B39D" transform="translate(35,62)"/>
<path d="M0 0 C0.33 1.32 0.66 2.64 1 4 C1.66 4 2.32 4 3 4 C3.33 5.98 3.66 7.96 4 10 C2 8.375 2 8.375 0 6 C-0.25 2.75 -0.25 2.75 0 0 Z " fill="#E1F1FA" transform="translate(189,43)"/>
<path d="M0 0 C2.99324263 1.0975223 3.84610901 1.67682892 5.25 4.625 C5.4975 5.40875 5.745 6.1925 6 7 C1.2 4.53846154 1.2 4.53846154 0.1875 1.8125 C0.125625 1.214375 0.06375 0.61625 0 0 Z " fill="#2A5B8C" transform="translate(177,65)"/>
<path d="M0 0 C1.98 1.65 3.96 3.3 6 5 C3.50907189 6.24546405 2.58919267 5.7767578 0 5 C0 3.35 0 1.7 0 0 Z " fill="#3970A9" transform="translate(178,40)"/>
<path d="M0 0 C1.32 0.33 2.64 0.66 4 1 C1.03 2.65 -1.94 4.3 -5 6 C-3 2 -3 2 0 0 Z " fill="#6B91BA" transform="translate(116,32)"/>
<path d="M0 0 C-1.1875 1.5 -1.1875 1.5 -3 3 C-5.6875 3.1875 -5.6875 3.1875 -8 3 C-6 0 -6 0 -4 -0.75 C-2 -1 -2 -1 0 0 Z " fill="#1F8F50" transform="translate(70,29)"/>
<path d="M0 0 C-4.75 4 -4.75 4 -7 4 C-7 2.68 -7 1.36 -7 0 C-2.25 -1.125 -2.25 -1.125 0 0 Z " fill="#B6E3CC" transform="translate(105,7)"/>
</svg>
